<svg version="1.2" xmlns="http://www.w3.org/2000/svg" viewBox="0 0 902 807" width="902" height="807"><defs><linearGradient id="P" gradientUnits="userSpaceOnUse"/><linearGradient id="g1" x2="1" href="#P" gradientTransform="matrix(-214.087,0,0,-17.118,769.359,791.034)"><stop stop-color="#fff"/><stop offset="1" stop-color="#70e3d6"/></linearGradient><linearGradient id="g2" x2="1" href="#P" gradientTransform="matrix(200.888,0,0,16.062,190.506,67.89)"><stop stop-color="#fff"/><stop offset="1" stop-color="#70e3d6"/></linearGradient><linearGradient id="g3" x2="1" href="#P" gradientTransform="matrix(12.835,259.619,-259.618,12.835,828.892,378.744)"><stop stop-color="#fefefe"/><stop offset="1" stop-color="#6d4ffc"/></linearGradient><linearGradient id="g4" x2="1" href="#P" gradientTransform="matrix(167.823,0,0,167.823,698.727,240.072)"><stop stop-color="#fff"/><stop offset="1" stop-color="#70e3d6"/></linearGradient><linearGradient id="g5" x2="1" href="#P" gradientTransform="matrix(-25.611,165.857,-165.857,-25.611,338.85,487.056)"><stop stop-color="#fff"/><stop offset="1" stop-color="#70e3d6"/></linearGradient><linearGradient id="g6" x2="1" href="#P" gradientTransform="matrix(25.094,-0.173,.173,25.094,90.722,441.102)"><stop stop-color="#fefefe"/><stop offset="1" stop-color="#6d4ffc"/></linearGradient><linearGradient id="g7" x2="1" href="#P" gradientTransform="matrix(25.094,-0.173,.173,25.094,186.337,440.442)"><stop stop-color="#fefefe"/><stop offset="1" stop-color="#6d4ffc"/></linearGradient><linearGradient id="g8" x2="1" href="#P" gradientTransform="matrix(25.094,-0.173,.173,25.094,136.86,486.608)"><stop stop-color="#fff"/><stop offset="1" stop-color="#70e3d6"/></linearGradient><linearGradient id="g9" x2="1" href="#P" gradientTransform="matrix(28.098,0,0,28.098,766.338,330.532)"><stop stop-color="#fefefe"/><stop offset="1" stop-color="#6d4ffc"/></linearGradient><linearGradient id="g10" x2="1" href="#P" gradientTransform="matrix(28.098,0,0,28.099,832.503,381.839)"><stop stop-color="#fff"/><stop offset="1" stop-color="#70e3d6"/></linearGradient><linearGradient id="g11" x2="1" href="#P" gradientTransform="matrix(23.959,0,0,23.959,384.612,8.925)"><stop stop-color="#fff"/><stop offset="1" stop-color="#70e3d6"/></linearGradient><linearGradient id="g12" x2="1" href="#P" gradientTransform="matrix(23.959,0,0,23.959,833.676,759.379)"><stop stop-color="#fff"/><stop offset="1" stop-color="#70e3d6"/></linearGradient><linearGradient id="g13" x2="1" href="#P" gradientTransform="matrix(34.539,4.447,-4.447,34.539,539.455,432.857)"><stop stop-color="#fff"/><stop offset="1" stop-color="#70e3d6"/></linearGradient><linearGradient id="g14" x2="1" href="#P" gradientTransform="matrix(23.959,0,0,23.959,95.491,354.431)"><stop stop-color="#fff"/><stop offset="1" stop-color="#70e3d6"/></linearGradient><linearGradient id="g15" x2="1" href="#P" gradientTransform="matrix(49.798,0,0,49.798,71.498,32.508)"><stop stop-color="#e3f3fe"/><stop offset="1" stop-color="#6d4ffc"/></linearGradient><linearGradient id="g16" x2="1" href="#P" gradientTransform="matrix(16.121,0,0,16.119,885.58,496.832)"><stop stop-color="#e3f3fe"/><stop offset="1" stop-color="#6d4ffc"/></linearGradient><linearGradient id="g17" x2="1" href="#P" gradientTransform="matrix(482.707,0,0,643.622,245.647,106.599)"><stop stop-color="#fff"/><stop offset=".94" stop-color="#f9f9f9"/></linearGradient><linearGradient id="g18" x2="1" href="#P" gradientTransform="matrix(441.959,441.959,-441.959,441.959,496,-7.237)"><stop stop-color="#fff"/><stop offset="1" stop-color="#70e3d6"/></linearGradient><linearGradient id="g19" x2="1" href="#P" gradientTransform="matrix(51.659,0,0,43.492,278.69,675.699)"><stop stop-color="#845eff"/><stop offset="1" stop-color="#fff"/></linearGradient><linearGradient id="g20" x2="1" href="#P" gradientTransform="matrix(58.238,58.238,-58.238,58.238,298.755,103.814)"><stop stop-color="#fff"/><stop offset="1" stop-color="#845eff"/></linearGradient><linearGradient id="g21" x2="1" href="#P" gradientTransform="matrix(16.356,0,0,16.357,551.207,232.087)"><stop stop-color="#fff"/><stop offset="1" stop-color="#70e3d6"/></linearGradient><linearGradient id="g22" x2="1" href="#P" gradientTransform="matrix(16.355,0,0,16.356,423.665,232.474)"><stop stop-color="#fff"/><stop offset="1" stop-color="#70e3d6"/></linearGradient><linearGradient id="g23" x2="1" href="#P" gradientTransform="matrix(53.137,0,0,82.172,470.209,427.352)"><stop stop-color="#fff"/><stop offset=".94" stop-color="#f9f9f9"/></linearGradient><linearGradient id="g24" x2="1" href="#P" gradientTransform="matrix(26.952,26.952,-26.959,26.959,495.031,427.923)"><stop stop-color="#fff"/><stop offset="1" stop-color="#70e3d6"/></linearGradient><linearGradient id="g25" x2="1" href="#P" gradientTransform="matrix(71.409,0,0,30.674,343.004,350.612)"><stop stop-color="#fff"/><stop offset=".94" stop-color="#f9f9f9"/></linearGradient><linearGradient id="g26" x2="1" href="#P" gradientTransform="matrix(7.304,0,0,7.304,375.103,356.621)"><stop stop-color="#fff"/><stop offset=".94" stop-color="#f9f9f9"/></linearGradient><linearGradient id="g27" x2="1" href="#P" gradientTransform="matrix(71.19,-10.889,11.636,76.073,584.103,149.837)"><stop stop-color="#fefefe"/><stop offset="1" stop-color="#6d4ffc"/></linearGradient><linearGradient id="g28" x2="1" href="#P" gradientTransform="matrix(43.774,-6.695,6.876,44.953,708.956,121.402)"><stop stop-color="#fefefe"/><stop offset="1" stop-color="#6d4ffc"/></linearGradient><clipPath clipPathUnits="userSpaceOnUse" id="cp1"><path d="m770.43 118.65c15.7 35.13 19.54 67.5 8.6 72.3-10.95 4.81-32.55-19.76-48.24-54.89-15.69-35.12-19.54-67.49-8.59-72.3 10.95-4.81 32.54 19.77 48.23 54.89z"/></clipPath><linearGradient id="g29" x2="1" href="#P" gradientTransform="matrix(31.252,-4.78,6.939,45.367,775.954,37.475)"><stop stop-color="#fff"/><stop offset="1" stop-color="#70e3d6"/></linearGradient><linearGradient id="g30" x2="1" href="#P" gradientTransform="matrix(49.275,-7.537,2.484,16.243,809.859,145.959)"><stop stop-color="#fff"/><stop offset="1" stop-color="#70e3d6"/></linearGradient><linearGradient id="g31" x2="1" href="#P" gradientTransform="matrix(86.992,-13.306,5.227,34.172,797.873,77.523)"><stop stop-color="#fefefe"/><stop offset="1" stop-color="#6d4ffc"/></linearGradient><linearGradient id="g32" x2="1" href="#P" gradientTransform="matrix(317.259,0,0,52.668,37.31,238.81)"><stop stop-color="#fefefe"/><stop offset="1" stop-color="#6d4ffc"/></linearGradient><linearGradient id="g33" x2="1" href="#P" gradientTransform="matrix(112.623,112.623,-96.137,96.137,240.182,258.386)"><stop stop-color="#fefefe"/><stop offset="1" stop-color="#6d4ffc"/></linearGradient><linearGradient id="g34" x2="1" href="#P" gradientTransform="matrix(28.18,28.18,-19.922,19.922,272.974,308.771)"><stop stop-color="#fff"/><stop offset="1" stop-color="#70e3d6"/></linearGradient><linearGradient id="g35" x2="1" href="#P" gradientTransform="matrix(16.153,16.153,-11.419,11.419,262.529,330.61)"><stop stop-color="#fff"/><stop offset="1" stop-color="#70e3d6"/></linearGradient><linearGradient id="g36" x2="1" href="#P" gradientTransform="matrix(90.192,93.395,-93.957,90.735,630.646,-44.411)"><stop stop-color="#fff"/><stop offset="1" stop-color="#70e3d6"/></linearGradient><linearGradient id="g37" x2="1" href="#P" gradientTransform="matrix(36.221,36.221,-36.22,36.22,629.522,.489)"><stop stop-color="#fff"/><stop offset=".94" stop-color="#f9f9f9"/></linearGradient></defs><style>.a{fill:#050004}.b{opacity:.6;fill:none}.c{fill:#fff}.d{fill:url(#g1)}.e{fill:#000201}.f{fill:url(#g2)}.g{fill:url(#g3)}.h{fill:url(#g4)}.i{fill:url(#g5)}.j{fill:#103463}.k{fill:url(#g6)}.l{fill:url(#g7)}.m{fill:url(#g8)}.n{fill:url(#g9)}.o{fill:url(#g10)}.p{fill:url(#g11)}.q{fill:url(#g12)}.r{fill:url(#g13)}.s{fill:url(#g14)}.t{fill:url(#g15)}.u{fill:url(#g16)}.v{fill:url(#g17)}.w{fill:url(#g18)}.x{fill:url(#g19)}.y{fill:url(#g20)}.z{fill:#f8f7f5}.A{fill:none;stroke:#000201;stroke-linecap:round;stroke-linejoin:round;stroke-width:2}.B{fill:url(#g21)}.C{fill:url(#g22)}.D{fill:#fff8f8}.E{fill:#7c55ff}.F{fill:none}.G{fill:url(#g23)}.H{fill:url(#g24)}.I{fill:#ffe6d7}.J{fill:url(#g25)}.K{fill:url(#g26)}.L{fill:#f9c7ef}.M{fill:#fff9f3}.N{fill:url(#g27)}.O{fill:#f8eee2}.P{opacity:.7;fill:none}.Q{fill:url(#g28)}.R{fill:#f9f9f9;stroke:#000201;stroke-linecap:round;stroke-linejoin:round;stroke-width:2}.S{fill:url(#g29)}.T{fill:url(#g30)}.U{fill:url(#g31)}.V{fill:url(#g32)}.W{fill:url(#g33)}.X{fill:url(#g34)}.Y{fill:url(#g35)}.Z{fill:url(#g36)}.a0{fill:url(#g37)}</style><path class="a" d="m785 806.7h-129.8c-0.5 0-1-0.4-1-1 0-0.5 0.5-1 1-1h128.8v-155.7c0-0.5 0.4-1 1-1 0.5 0 1 0.5 1 1v156.7c0 0.6-0.5 1-1 1z"/><path class="b" d="m655.2 805.7h129.8v-156.7"/><path class="c" d="m769.4 605.6h-214.1v185.4h214.1z"/><path class="d" d="m769.4 773.9h-214.1v17.1h214.1z"/><path fill-rule="evenodd" class="a" d="m769.4 792h-214.1c-0.6 0-1-0.4-1-1v-17.1c0-0.5 0.4-1 1-1h214.1c0.5 0 1 0.5 1 1v17.1c0 0.6-0.5 1-1 1zm-213.1-2h212.1v-15.1h-212.1z"/><path class="e" d="m800.4 685.4h-35.1c-12.4 0-22.5 10.1-22.5 22.6 0 12.5 10.1 22.6 22.5 22.6h35.1c12.5 0 22.6-10.1 22.6-22.6 0-12.5-10.1-22.6-22.6-22.6z"/><path fill-rule="evenodd" class="e" d="m800.4 731.6h-35.1c-13 0-23.5-10.6-23.5-23.6 0-13 10.5-23.6 23.5-23.6h35.1c13 0 23.6 10.6 23.6 23.6 0 13-10.6 23.6-23.6 23.6zm-35.1-45.2c-11.9 0-21.5 9.7-21.5 21.6 0 11.9 9.6 21.6 21.5 21.6h35.1c11.9 0 21.6-9.7 21.6-21.6 0-11.9-9.7-21.6-21.6-21.6z"/><path fill-rule="evenodd" class="c" d="m766 711.9c-2.1 0-3.8-1.7-3.8-3.9 0-2.1 1.7-3.9 3.8-3.9 2.2 0 3.9 1.8 3.9 3.9 0 2.2-1.7 3.9-3.9 3.9zm0-5.8c-1 0-1.8 0.9-1.8 1.9 0 1.1 0.8 1.9 1.8 1.9 1.1 0 1.9-0.8 1.9-1.9 0-1-0.8-1.9-1.9-1.9z"/><path fill-rule="evenodd" class="c" d="m799.8 711.9c-2.2 0-3.9-1.7-3.9-3.9 0-2.1 1.7-3.9 3.9-3.9 2.1 0 3.8 1.8 3.8 3.9 0 2.2-1.7 3.9-3.8 3.9zm0-5.8c-1.1 0-1.9 0.9-1.9 1.9 0 1.1 0.8 1.9 1.9 1.9 1 0 1.8-0.8 1.8-1.9 0-1-0.8-1.9-1.8-1.9z"/><path fill-rule="evenodd" class="c" d="m783.5 711.9c-2.1 0-3.8-1.7-3.8-3.9 0-2.1 1.7-3.9 3.8-3.9 2.2 0 3.9 1.8 3.9 3.9 0 2.2-1.7 3.9-3.9 3.9zm0-5.8c-1 0-1.8 0.9-1.8 1.9 0 1.1 0.8 1.9 1.8 1.9 1.1 0 1.9-0.8 1.9-1.9 0-1-0.8-1.9-1.9-1.9z"/><path class="a" d="m175.8 202.1c-0.5 0-1-0.4-1-1v-147c0-0.6 0.5-1 1-1h121.8c0.5 0 1 0.4 1 1 0 0.5-0.5 1-1 1h-120.8v146c0 0.6-0.4 1-1 1z"/><path class="b" d="m297.6 54.1h-121.8v147"/><path class="c" d="m190.5 241.8h200.9v-173.9h-200.9z"/><path class="f" d="m190.5 84h200.9v-16.1h-200.9z"/><path fill-rule="evenodd" class="a" d="m391.4 85h-200.9c-0.5 0-1-0.5-1-1v-16.1c0-0.6 0.5-1 1-1h200.9c0.5 0 1 0.4 1 1v16.1c0 0.5-0.5 1-1 1zm-199.9-2h198.9v-14.1h-198.9z"/><path class="e" d="m161.3 167h33c11.7 0 21.2-9.5 21.2-21.2 0-11.7-9.5-21.2-21.2-21.2h-33c-11.7 0-21.2 9.5-21.2 21.2 0 11.7 9.5 21.2 21.2 21.2z"/><path fill-rule="evenodd" class="e" d="m194.3 168h-33c-12.2 0-22.2-10-22.2-22.2 0-12.3 10-22.2 22.2-22.2h33c12.2 0 22.2 9.9 22.2 22.2 0 12.2-10 22.2-22.2 22.2zm-33-42.4c-11.1 0-20.2 9-20.2 20.2 0 11.1 9.1 20.2 20.2 20.2h33c11.1 0 20.2-9.1 20.2-20.2 0-11.2-9.1-20.2-20.2-20.2z"/><path fill-rule="evenodd" class="c" d="m193.6 149.5c-2 0-3.7-1.7-3.7-3.7 0-2.1 1.7-3.7 3.7-3.7 2.1 0 3.7 1.6 3.7 3.7 0 2-1.6 3.7-3.7 3.7zm0-5.4c-0.9 0-1.7 0.7-1.7 1.7 0 0.9 0.8 1.7 1.7 1.7 1 0 1.7-0.8 1.7-1.7 0-1-0.7-1.7-1.7-1.7z"/><path fill-rule="evenodd" class="c" d="m162 149.5c-2.1 0-3.7-1.7-3.7-3.7 0-2.1 1.6-3.7 3.7-3.7 2 0 3.7 1.6 3.7 3.7 0 2-1.7 3.7-3.7 3.7zm0-5.4c-1 0-1.7 0.7-1.7 1.7 0 0.9 0.7 1.7 1.7 1.7 0.9 0 1.7-0.8 1.7-1.7 0-1-0.8-1.7-1.7-1.7z"/><path fill-rule="evenodd" class="c" d="m177.2 149.5c-2 0-3.7-1.7-3.7-3.7 0-2.1 1.7-3.7 3.7-3.7 2 0 3.7 1.6 3.7 3.7 0 2-1.7 3.7-3.7 3.7zm0-5.4c-0.9 0-1.7 0.7-1.7 1.7 0 0.9 0.8 1.7 1.7 1.7 0.9 0 1.7-0.8 1.7-1.7 0-1-0.8-1.7-1.7-1.7z"/><path fill-rule="evenodd" class="g" d="m696.9 644.7c-5.2 0-9.5-4.3-9.5-9.5l-0.2-24.2c-12.9-2.5-24.9-7.4-35.8-14.7l-17.1 17.2c-3.7 3.8-9.7 3.8-13.5 0.1l-13.1-12.9c-3.7-3.7-3.7-9.8 0-13.5l17-17.3c-7.4-10.8-12.4-22.8-15-35.7l-24.2 0.1q0 0-0.1 0c-2.5 0-4.9-0.9-6.7-2.7-1.8-1.8-2.8-4.2-2.8-6.8l-0.1-18.4c0-2.5 0.9-4.9 2.7-6.7 1.8-1.8 4.2-2.9 6.8-2.9l24.2-0.1c2.4-12.9 7.4-25 14.6-35.9l-17.2-17c-3.7-3.7-3.7-9.8 0-13.5l12.9-13.1c1.8-1.8 4.2-2.8 6.7-2.8q0.1 0 0.1 0c2.5 0 4.9 1 6.7 2.7l17.2 17.1c10.9-7.4 22.9-12.5 35.8-15l-0.2-24.2c0-5.3 4.3-9.6 9.6-9.7l18.3-0.1q0.1 0 0.1 0c5.2 0 9.5 4.3 9.5 9.6l0.2 24.2c12.9 2.4 24.9 7.3 35.8 14.6l17.1-17.2c1.8-1.8 4.2-2.8 6.7-2.8q0 0 0.1 0c2.5 0 4.9 1 6.7 2.7l13.1 13c3.7 3.7 3.7 9.7 0 13.5l-17 17.2c7.4 10.8 12.4 22.9 15 35.7l24.2-0.1c2.6 0 5 1 6.8 2.8 1.8 1.8 2.8 4.2 2.8 6.7l0.1 18.4c0 2.6-0.9 5-2.7 6.8-1.8 1.8-4.2 2.8-6.8 2.8l-24.2 0.1c-2.4 12.9-7.4 25-14.6 35.9l17.2 17c3.7 3.8 3.7 9.8 0 13.6l-12.9 13c-1.8 1.8-4.2 2.8-6.7 2.9q-0.1 0-0.1 0c-2.5 0-4.9-1-6.7-2.8l-17.2-17c-10.9 7.4-22.9 12.4-35.8 15l0.2 24.2c0 5.3-4.3 9.6-9.5 9.6l-18.4 0.1q0 0-0.1 0zm-45.7-50.7q0.3 0 0.6 0.2c11.1 7.5 23.4 12.6 36.6 15 0.5 0 0.8 0.5 0.8 0.9l0.2 25.1c0 4.1 3.4 7.5 7.5 7.5q0 0 0.1 0l18.3-0.1c4.2 0 7.6-3.4 7.6-7.6l-0.2-25c0-0.5 0.4-0.9 0.8-1 13.2-2.5 25.5-7.7 36.5-15.3 0.4-0.3 0.9-0.3 1.3 0.1l17.8 17.6c1.4 1.4 3.3 2.2 5.3 2.2q0 0 0 0c2.1 0 4-0.8 5.4-2.3l12.9-13c2.9-3 2.9-7.8 0-10.7l-17.8-17.6c-0.4-0.4-0.4-0.9-0.2-1.3 7.6-11.1 12.6-23.4 15-36.6 0.1-0.5 0.5-0.9 1-0.9l25-0.1c2 0 3.9-0.8 5.3-2.2 1.5-1.5 2.2-3.4 2.2-5.4l-0.1-18.4c0-2-0.8-3.9-2.2-5.3-1.4-1.4-3.4-2.2-5.4-2.2l-25 0.1q0 0 0 0c-0.5 0-0.9-0.3-1-0.8-2.5-13.2-7.7-25.4-15.3-36.4-0.3-0.4-0.2-1 0.1-1.3l17.6-17.8c2.9-3 2.9-7.8 0-10.7l-13.1-12.9c-1.4-1.5-3.3-2.2-5.4-2.2-2 0-3.9 0.8-5.3 2.2l-17.6 17.8c-0.4 0.4-0.9 0.4-1.3 0.1-11.1-7.5-23.4-12.5-36.6-14.9-0.5-0.1-0.8-0.5-0.8-1l-0.2-25c0-4.2-3.4-7.6-7.5-7.6q0 0-0.1 0l-18.3 0.1c-4.2 0.1-7.6 3.5-7.6 7.6l0.2 25.1c0 0.5-0.4 0.9-0.8 1-13.2 2.5-25.5 7.6-36.5 15.3-0.4 0.3-0.9 0.2-1.3-0.1l-17.8-17.6c-1.4-1.4-3.3-2.2-5.3-2.2q0 0 0 0c-2.1 0-4 0.8-5.4 2.2l-12.9 13.1c-1.4 1.4-2.2 3.3-2.2 5.3 0 2.1 0.8 4 2.2 5.4l17.8 17.6c0.4 0.3 0.4 0.9 0.2 1.3-7.6 11.1-12.6 23.4-15 36.6-0.1 0.5-0.5 0.8-1 0.8l-25 0.1c-2 0-3.9 0.8-5.3 2.3-1.5 1.4-2.2 3.3-2.2 5.3l0.1 18.4c0 2 0.8 3.9 2.2 5.3 1.4 1.5 3.3 2.2 5.3 2.2q0 0 0.1 0l25-0.1q0 0 0 0c0.5 0 0.9 0.3 1 0.8 2.5 13.2 7.7 25.5 15.3 36.5 0.3 0.4 0.2 0.9-0.1 1.3l-17.6 17.8c-2.9 2.9-2.9 7.7 0.1 10.6l13 13c1.4 1.4 3.3 2.2 5.4 2.2 2 0 3.9-0.8 5.3-2.3l17.6-17.8q0.3-0.3 0.7-0.3zm54.2-28.3c-12.6 0-24.5-4.6-33.9-13.2-10.1-9-16-21.5-16.6-35-0.7-13.6 3.9-26.5 13-36.6 9.1-10 21.6-15.9 35.1-16.6 27.9-1.4 51.8 20.2 53.1 48.2 0.7 13.5-3.9 26.5-13 36.5-9.1 10-21.6 15.9-35.1 16.6q-1.3 0.1-2.6 0.1zm0.1-99.4q-1.2 0-2.4 0c-13 0.7-25 6.3-33.7 16-8.7 9.6-13.2 22.1-12.5 35.1 1.3 26.8 24.1 47.5 51 46.2 13-0.6 25-6.3 33.7-15.9 8.7-9.7 13.2-22.1 12.5-35.1-1.2-26-22.8-46.3-48.6-46.3z"/><path fill-rule="evenodd" class="h" d="m804 407.9q-1.4 0-2.8-0.6c-1.6-0.8-2.8-2.1-3.4-3.8l-5.4-14.9c-8.5 1.3-17 0.9-25.4-1.2l-6.7 14.4c-0.8 1.6-2.1 2.8-3.8 3.4-1.7 0.6-3.5 0.5-5.1-0.2l-11.1-5.2c-3.3-1.6-4.7-5.6-3.2-8.9l6.7-14.4c-6.9-5-12.6-11.3-17.1-18.7l-14.9 5.4c-3.4 1.2-7.3-0.6-8.5-4l-4.2-11.5c-0.6-1.7-0.5-3.5 0.3-5.2 0.7-1.6 2.1-2.8 3.7-3.4l14.9-5.4c-1.3-8.5-0.9-17 1.2-25.3l-14.3-6.8c-3.4-1.5-4.8-5.5-3.2-8.9l5.1-11c0.8-1.6 2.1-2.9 3.8-3.5 1.7-0.6 3.5-0.5 5.1 0.3l14.4 6.7c5.1-6.9 11.4-12.7 18.7-17.1l-5.4-14.9c-1.2-3.5 0.6-7.3 4.1-8.6l11.5-4.1c3.4-1.3 7.3 0.5 8.5 4l5.4 14.9c8.5-1.3 17-0.9 25.4 1.1l6.7-14.3c1.6-3.3 5.5-4.8 8.9-3.2l11 5.2c1.7 0.7 2.9 2.1 3.5 3.8 0.6 1.6 0.5 3.5-0.2 5.1l-6.8 14.3c7 5.1 12.7 11.4 17.1 18.8l14.9-5.4c1.7-0.6 3.5-0.5 5.1 0.2 1.7 0.8 2.9 2.1 3.5 3.8l4.2 11.5c1.2 3.5-0.6 7.3-4.1 8.6l-14.9 5.3c1.3 8.5 0.9 17.1-1.1 25.4l14.3 6.7c1.6 0.8 2.9 2.1 3.5 3.8 0.6 1.7 0.5 3.5-0.3 5.1l-5.2 11.1c-0.7 1.6-2.1 2.8-3.7 3.4-1.7 0.6-3.5 0.6-5.2-0.2l-14.3-6.7c-5.1 6.9-11.4 12.6-18.7 17.1l5.3 14.9c1.3 3.4-0.5 7.3-4 8.5l-11.5 4.2q-1.1 0.4-2.3 0.4zm-10.3-21.5l5.9 16.4c0.5 1.2 1.3 2.1 2.5 2.7 1.1 0.5 2.4 0.5 3.5 0.1l11.5-4.1c2.5-0.9 3.7-3.6 2.9-6l-6-16.5 0.7-0.4c7.7-4.5 14.2-10.4 19.4-17.6l0.5-0.7 15.8 7.4c1.1 0.5 2.4 0.6 3.6 0.2 1.2-0.5 2.1-1.3 2.6-2.5l5.2-11c0.6-1.2 0.6-2.4 0.2-3.6-0.4-1.2-1.3-2.1-2.4-2.7l-15.9-7.4 0.2-0.8c2.3-8.6 2.7-17.4 1.3-26.1l-0.2-0.9 16.5-5.9c2.4-0.9 3.7-3.6 2.8-6l-4.2-11.5c-0.4-1.2-1.3-2.1-2.4-2.7-1.1-0.5-2.4-0.6-3.6-0.1l-16.4 5.9-0.4-0.7c-4.5-7.7-10.5-14.2-17.7-19.4l-0.7-0.4 7.5-15.9c0.5-1.1 0.6-2.4 0.1-3.6-0.4-1.1-1.3-2.1-2.4-2.6l-11.1-5.2c-2.3-1.1-5.1-0.1-6.2 2.3l-7.4 15.8-0.8-0.2c-8.6-2.3-17.4-2.7-26.2-1.2l-0.8 0.1-5.9-16.4c-0.9-2.5-3.6-3.7-6.1-2.9l-11.5 4.2c-2.4 0.9-3.7 3.6-2.8 6l6 16.5-0.8 0.4c-7.6 4.5-14.1 10.4-19.3 17.6l-0.5 0.7-15.8-7.4c-1.1-0.6-2.4-0.6-3.6-0.2-1.2 0.4-2.1 1.3-2.7 2.4l-5.1 11.1c-1.1 2.3-0.1 5.1 2.2 6.2l15.8 7.5-0.2 0.8c-2.2 8.6-2.6 17.4-1.2 26.1l0.2 0.8-16.5 6c-1.2 0.4-2.1 1.3-2.6 2.4-0.6 1.1-0.6 2.4-0.2 3.6l4.2 11.5c0.8 2.4 3.5 3.7 6 2.8l16.4-5.9 0.4 0.7c4.5 7.6 10.5 14.1 17.7 19.3l0.6 0.5-7.4 15.8c-1.1 2.4-0.1 5.2 2.3 6.3l11 5.2c1.2 0.5 2.5 0.6 3.6 0.1 1.2-0.4 2.2-1.3 2.7-2.4l7.4-15.8 0.8 0.2c8.6 2.2 17.4 2.6 26.2 1.2zm-11.1-28.3c-4.9 0-9.8-1.1-14.4-3.3-8.3-3.8-14.5-10.7-17.6-19.2-3.1-8.6-2.7-17.8 1.2-26 3.9-8.3 10.7-14.5 19.3-17.6 8.5-3.1 17.8-2.7 26 1.2 8.2 3.9 14.5 10.7 17.5 19.2 3.1 8.6 2.7 17.8-1.1 26.1-3.9 8.2-10.7 14.5-19.3 17.5-3.8 1.4-7.7 2.1-11.6 2.1zm-13.6-5.1c7.8 3.7 16.5 4.1 24.5 1.2 8.1-2.9 14.5-8.8 18.1-16.6 3.7-7.7 4.1-16.4 1.2-24.5-2.9-8-8.8-14.5-16.6-18.1-7.7-3.6-16.4-4-24.5-1.1-8 2.9-14.5 8.7-18.1 16.5-3.6 7.8-4 16.5-1.1 24.5 2.9 8.1 8.8 14.5 16.5 18.1z"/><path fill-rule="evenodd" class="i" d="m156.9 565.5q0.2-1.4 1.1-2.7c1-1.5 2.5-2.5 4.2-2.8l15.6-3.1c0-8.5 1.7-16.9 5-24.8l-13.1-8.9c-1.5-1-2.5-2.5-2.9-4.2-0.3-1.8 0.1-3.6 1-5.1l6.9-10.1c2-3.1 6.2-3.9 9.2-1.8l13.2 8.8c6.1-6 13.2-10.8 21.1-14l-3-15.6c-0.7-3.6 1.6-7.1 5.3-7.8l12-2.4c1.7-0.3 3.5 0 5 1 1.5 1 2.5 2.6 2.8 4.3l3.1 15.5c8.5 0.1 16.9 1.8 24.8 5.1l8.9-13.2c2-3 6.2-3.8 9.3-1.8l10.1 6.8c1.5 1 2.5 2.5 2.8 4.3 0.4 1.8 0 3.5-1 5l-8.8 13.2c6 6 10.8 13.1 14 21.1l15.6-3.1c3.6-0.7 7.1 1.7 7.8 5.3l2.4 12c0.7 3.6-1.7 7.2-5.3 7.9l-15.5 3c-0.1 8.6-1.8 17-5.1 24.9l13.2 8.8c3 2.1 3.8 6.3 1.8 9.3l-6.8 10.2c-1 1.4-2.5 2.4-4.3 2.8-1.7 0.3-3.5 0-5-1l-13.2-8.9c-6 6.1-13.2 10.8-21.1 14.1l3 15.5c0.4 1.8 0 3.6-1 5-1 1.5-2.5 2.5-4.2 2.9l-12 2.3c-3.6 0.7-7.2-1.6-7.9-5.3l-3-15.5c-8.6 0-17-1.7-24.9-5l-8.8 13.1c-1 1.5-2.5 2.5-4.3 2.9-1.8 0.3-3.5-0.1-5-1.1l-10.2-6.8c-1.4-1-2.4-2.5-2.8-4.2-0.3-1.8 0-3.6 1-5.1l8.9-13.1c-6.1-6.1-10.8-13.2-14.1-21.1l-15.5 3c-3.6 0.7-7.2-1.6-7.9-5.3l-2.3-12q-0.3-1.1-0.1-2.3zm22.9-6.9l-17.2 3.3c-1.2 0.3-2.3 1-3 2-0.7 1.1-0.9 2.3-0.7 3.6l2.4 12c0.5 2.5 2.9 4.2 5.5 3.7l17.1-3.4 0.3 0.8c3.3 8.2 8.2 15.6 14.5 21.8l0.6 0.5-9.7 14.6c-0.7 1-1 2.3-0.7 3.5 0.2 1.2 0.9 2.3 1.9 3l10.2 6.8c1 0.7 2.3 1 3.5 0.7 1.3-0.2 2.3-0.9 3-2l9.8-14.5 0.7 0.3c8.2 3.6 16.8 5.3 25.7 5.2h0.8l3.4 17.2c0.5 2.5 2.9 4.2 5.5 3.7l12-2.4c1.2-0.2 2.3-0.9 3-2 0.7-1 0.9-2.3 0.7-3.5l-3.4-17.1 0.8-0.3c8.3-3.3 15.6-8.2 21.8-14.5l0.6-0.6 14.5 9.7c1 0.7 2.3 1 3.5 0.7 1.3-0.2 2.3-0.9 3-2l6.8-10.1c1.5-2.1 0.9-5.1-1.2-6.5l-14.6-9.8 0.4-0.7c3.5-8.2 5.2-16.8 5.2-25.7v-0.8l17.1-3.4c2.5-0.5 4.2-2.9 3.7-5.5l-2.3-12c-0.5-2.5-3-4.2-5.6-3.7l-17.1 3.4-0.3-0.8c-3.3-8.3-8.2-15.6-14.5-21.8l-0.6-0.6 9.8-14.5c0.7-1 0.9-2.3 0.7-3.5-0.3-1.3-1-2.3-2-3l-10.2-6.8c-2.1-1.5-5-0.9-6.5 1.2l-9.7 14.5-0.8-0.3c-8.1-3.5-16.8-5.3-25.7-5.2h-0.8l-3.3-17.1c-0.3-1.2-1-2.3-2-3-1.1-0.7-2.3-1-3.6-0.7l-12 2.3c-2.5 0.5-4.2 3-3.7 5.6l3.4 17.1-0.8 0.3c-8.2 3.3-15.6 8.2-21.8 14.5l-0.6 0.6-14.5-9.8c-2.1-1.4-5-0.8-6.5 1.3l-6.8 10.2c-0.7 1-1 2.2-0.7 3.5 0.2 1.2 0.9 2.3 2 3l14.5 9.7-0.3 0.8c-3.6 8.1-5.3 16.8-5.2 25.7zm29.6-6.7c0.8-4.8 2.6-9.5 5.4-13.7 5.1-7.6 12.8-12.7 21.8-14.5 8.9-1.7 18 0.1 25.5 5.2 7.6 5.1 12.7 12.8 14.4 21.7 1.8 8.9-0.1 18-5.1 25.5-5.1 7.6-12.8 12.7-21.7 14.5-9 1.7-18-0.1-25.6-5.2-7.5-5.1-12.7-12.8-14.4-21.7-0.8-3.9-0.9-7.9-0.3-11.8zm7.1-12.6c-4.8 7.1-6.5 15.6-4.9 24 1.7 8.4 6.5 15.7 13.6 20.5 7.1 4.7 15.7 6.5 24.1 4.8 8.4-1.6 15.6-6.5 20.4-13.6 4.8-7.1 6.5-15.6 4.9-24-1.7-8.4-6.5-15.7-13.6-20.5-7.1-4.7-15.7-6.5-24.1-4.8-8.4 1.6-15.6 6.5-20.4 13.6z"/><path class="j" d="m149.5 501.7l-46.7-47.6c-0.4-0.3-0.4-0.8 0-1.1 0.3-0.4 0.8-0.3 1.1 0l45.6 46.3 50-47.5 0.6 0.4 59.4 45.5c0.3 0.2 0.4 0.8 0.1 1.1-0.2 0.4-0.8 0.4-1.1 0.2l-58.9-45z"/><path class="e" d="m149.5 503.1l-47.4-48.3c-0.4-0.3-0.6-0.8-0.6-1.3 0-0.4 0.2-0.9 0.6-1.2 0.7-0.7 1.9-0.7 2.6 0l44.8 45.6 49.9-47.4 1.3 0.9 59.4 45.5c0.8 0.6 0.9 1.7 0.3 2.5-0.6 0.8-1.7 1-2.5 0.4l-58.2-44.5z"/><path class="k" d="m115.9 453.5c0.1 6.9-5.5 12.6-12.5 12.6-6.9 0.1-12.5-5.5-12.6-12.5 0-6.9 5.5-12.5 12.5-12.6 6.9 0 12.6 5.5 12.6 12.5z"/><path fill-rule="evenodd" class="a" d="m103.4 467.1c-3.6 0-7-1.4-9.6-3.9-2.5-2.5-4-5.9-4-9.5 0-3.7 1.4-7.1 3.9-9.7 2.6-2.5 5.9-4 9.6-4q0 0 0.1 0c3.5 0 6.9 1.4 9.5 3.9 2.5 2.6 4 6 4 9.6 0 3.6-1.4 7-3.9 9.6-2.5 2.6-5.9 4-9.6 4q0 0 0 0zm0-25.1q-0.1 0-0.1 0c-3.1 0-6 1.3-8.2 3.5-2.1 2.1-3.3 5.1-3.3 8.1 0 3.1 1.3 6 3.4 8.2 2.2 2.1 5.2 3.3 8.2 3.3 3.1 0 6-1.2 8.2-3.4 2.1-2.2 3.3-5.1 3.3-8.2 0-3.1-1.2-6-3.4-8.2-2.2-2.1-5.1-3.3-8.1-3.3z"/><path class="l" d="m211.5 452.8c0.1 6.9-5.5 12.6-12.4 12.6-7 0.1-12.6-5.5-12.7-12.4 0-6.9 5.6-12.6 12.5-12.6 6.9-0.1 12.6 5.5 12.6 12.4z"/><path fill-rule="evenodd" class="a" d="m199 466.4c-3.6 0-7-1.3-9.5-3.9-2.6-2.5-4.1-5.9-4.1-9.5 0-7.5 6-13.6 13.5-13.6q0 0 0.1 0c7.4 0 13.5 6 13.5 13.4 0 3.6-1.3 7-3.9 9.6-2.5 2.6-5.9 4-9.5 4q-0.1 0-0.1 0zm0-25q-0.1 0-0.1 0c-6.4 0-11.5 5.2-11.5 11.6 0 3.1 1.3 6 3.5 8.1 2.2 2.2 5.1 3.3 8.2 3.3 3 0 5.9-1.2 8.1-3.4 2.2-2.2 3.3-5.1 3.3-8.2 0-6.3-5.2-11.4-11.5-11.4z"/><path class="m" d="m162 499c0.1 6.9-5.5 12.6-12.4 12.6-6.9 0.1-12.6-5.5-12.7-12.4 0-7 5.6-12.6 12.5-12.7 6.9 0 12.6 5.6 12.6 12.5z"/><path fill-rule="evenodd" class="a" d="m149.5 512.6c-3.6 0-7-1.4-9.5-3.9-2.6-2.5-4-5.9-4.1-9.5 0-3.7 1.4-7.1 3.9-9.6 2.6-2.6 6-4.1 9.6-4.1 3.7 0 7 1.4 9.6 3.9 2.6 2.6 4 6 4 9.6 0.1 3.6-1.3 7-3.9 9.6-2.5 2.6-5.9 4-9.5 4q-0.1 0-0.1 0zm0-25.1q0 0-0.1 0c-6.4 0.1-11.5 5.3-11.5 11.6 0.1 3.1 1.3 6 3.5 8.2 2.2 2.2 5.1 3.3 8.2 3.3 3.1 0 5.9-1.2 8.1-3.4 2.2-2.2 3.4-5.1 3.3-8.2 0-3.1-1.2-6-3.4-8.2-2.2-2.1-5-3.3-8.1-3.3z"/><path class="j" d="m724 398.4c-0.3 0-0.5-0.1-0.7-0.3-0.4-0.3-0.3-0.9 0-1.3l57-53.4 66.8 51.8c0.4 0.3 0.5 0.9 0.2 1.3-0.3 0.4-0.9 0.4-1.3 0.1l-65.6-50.8-55.8 52.4q-0.3 0.2-0.6 0.2z"/><path class="e" d="m724 399.4c-0.6 0-1.1-0.2-1.4-0.6-0.4-0.3-0.6-0.8-0.6-1.4 0.1-0.5 0.3-0.9 0.7-1.3l57.6-54.1 67.4 52.4c0.4 0.3 0.7 0.7 0.8 1.2 0 0.6-0.1 1.1-0.4 1.5-0.7 0.8-1.9 1-2.7 0.3l-64.9-50.3-55.2 51.8c-0.4 0.3-0.8 0.5-1.3 0.5z"/><path class="n" d="m794.4 344.6c0 7.7-6.3 14-14 14-7.8 0-14.1-6.3-14.1-14 0-7.8 6.3-14.1 14.1-14.1 7.7 0 14 6.3 14 14.1z"/><path fill-rule="evenodd" class="a" d="m780.4 359.6c-8.3 0-15.1-6.7-15.1-15 0-8.3 6.8-15.1 15.1-15.1 8.3 0 15 6.8 15 15.1 0 8.3-6.7 15-15 15zm0-28.1c-7.2 0-13.1 5.9-13.1 13.1 0 7.2 5.9 13 13.1 13 7.2 0 13-5.8 13-13 0-7.2-5.8-13.1-13-13.1z"/><path class="o" d="m860.6 395.9c0 7.7-6.3 14-14 14-7.8 0-14.1-6.3-14.1-14 0-7.8 6.3-14.1 14.1-14.1 7.7 0 14 6.3 14 14.1z"/><path fill-rule="evenodd" class="a" d="m846.6 410.9c-8.3 0-15.1-6.7-15.1-15 0-8.3 6.8-15.1 15.1-15.1 8.3 0 15 6.8 15 15.1 0 8.3-6.7 15-15 15zm0-28.1c-7.2 0-13.1 5.9-13.1 13.1 0 7.2 5.9 13 13.1 13 7.1 0 13-5.8 13-13 0-7.2-5.9-13.1-13-13.1z"/><path fill-rule="evenodd" class="p" d="m396.6 32.9q0 0 0 0c-0.4 0-0.7-0.2-0.9-0.5l-3.7-6.9-6.9-3.7c-0.3-0.2-0.5-0.6-0.5-0.9 0-0.4 0.2-0.7 0.5-0.9l6.9-3.7 3.7-6.9c0.2-0.3 0.6-0.5 0.9-0.5q0 0 0 0c0.4 0 0.7 0.2 0.9 0.5l3.7 6.9 6.9 3.8c0.3 0.1 0.5 0.5 0.5 0.8 0 0.4-0.2 0.7-0.6 0.9l-6.8 3.7-3.8 6.9c-0.1 0.3-0.5 0.5-0.8 0.5zm-8.9-12l5.5 3q0.2 0.1 0.4 0.4l3 5.5 3-5.5q0.1-0.2 0.4-0.4l5.5-3-5.5-3q-0.3-0.1-0.4-0.4l-3-5.5-3 5.5q-0.1 0.2-0.4 0.4z"/><path fill-rule="evenodd" class="q" d="m845.6 783.3c-0.3 0-0.7-0.2-0.9-0.5l-3.7-6.8-6.8-3.8c-0.3-0.2-0.5-0.5-0.5-0.9 0-0.3 0.2-0.7 0.5-0.8l6.8-3.8 3.8-6.8c0.2-0.3 0.5-0.5 0.9-0.5 0.4 0 0.7 0.2 0.9 0.5l3.7 6.9 6.8 3.7c0.3 0.2 0.5 0.5 0.5 0.9 0 0.4-0.2 0.7-0.5 0.9l-6.8 3.7-3.8 6.8c-0.2 0.3-0.5 0.5-0.9 0.5zm-8.8-12l5.4 3.1q0.3 0.1 0.4 0.4l3 5.5 3-5.5q0.2-0.3 0.4-0.4l5.6-3-5.5-3q-0.3-0.2-0.4-0.4l-3-5.5-3 5.4q-0.2 0.3-0.4 0.4z"/><path fill-rule="evenodd" class="r" d="m553.9 469.8q0 0 0 0c-0.4 0-0.7-0.2-0.9-0.5l-5.3-10.6-10.2-6c-0.3-0.2-0.5-0.6-0.5-0.9 0-0.4 0.2-0.7 0.6-0.9l10.6-5.3 6-10.2c0.2-0.4 0.6-0.5 0.9-0.5 0.4 0 0.7 0.2 0.9 0.5l5.3 10.6 10.2 6c0.3 0.2 0.5 0.6 0.5 0.9 0 0.4-0.2 0.7-0.6 0.9l-10.6 5.3-6 10.2c-0.2 0.3-0.5 0.5-0.9 0.5zm-13.8-17.9l8.9 5.2q0.2 0.2 0.4 0.4l4.6 9.2 5.3-8.8q0.1-0.3 0.4-0.4l9.2-4.7-8.9-5.2q-0.2-0.2-0.4-0.4l-4.6-9.2-5.3 8.8q-0.1 0.3-0.4 0.4zm8.8-5.5z"/><path fill-rule="evenodd" class="s" d="m107.4 378.4c-0.3-0.1-0.7-0.2-0.8-0.5l-3.8-6.9-6.8-3.7c-0.3-0.2-0.5-0.6-0.5-0.9 0-0.4 0.2-0.7 0.5-0.9l6.9-3.7 3.7-6.9c0.2-0.3 0.5-0.5 0.9-0.5q0 0 0 0c0.4 0 0.7 0.2 0.9 0.6l3.7 6.8 6.8 3.8c0.4 0.1 0.6 0.5 0.6 0.8-0.1 0.4-0.3 0.7-0.6 0.9l-6.8 3.7-3.8 6.9c-0.2 0.3-0.5 0.5-0.9 0.5zm-8.8-12l5.5 3q0.2 0.1 0.4 0.4l2.9 5.5 3.1-5.5q0.1-0.2 0.4-0.4l5.5-3-5.5-3q-0.3-0.1-0.4-0.4l-3-5.5-3 5.5q-0.2 0.3-0.4 0.4z"/><path fill-rule="evenodd" class="t" d="m96.3 82.3q0 0 0 0c-0.3 0-0.7-0.2-0.8-0.5l-8.3-15.2-15.2-8.4c-0.3-0.2-0.5-0.5-0.5-0.9 0-0.3 0.2-0.7 0.5-0.8l15.2-8.3 8.4-15.2c0.2-0.3 0.5-0.5 0.9-0.5q0 0 0 0c0.3 0 0.7 0.2 0.8 0.5l8.3 15.2 15.2 8.4c0.3 0.2 0.5 0.5 0.5 0.9 0 0.3-0.2 0.7-0.5 0.9l-15.2 8.2-8.4 15.2c-0.2 0.3-0.5 0.5-0.9 0.5zm-21.7-25l13.8 7.7q0.3 0.1 0.4 0.4l7.5 13.8 7.6-13.8q0.2-0.3 0.4-0.4l13.9-7.5-13.8-7.6q-0.3-0.2-0.4-0.4l-7.5-13.9-7.7 13.8q-0.1 0.3-0.4 0.4z"/><path fill-rule="evenodd" class="u" d="m893.6 513c-0.3 0-0.7-0.3-0.9-0.6l-2.3-4.3-4.3-2.4c-0.3-0.1-0.5-0.5-0.5-0.8 0-0.4 0.2-0.7 0.5-0.9l4.3-2.3 2.4-4.4c0.2-0.3 0.5-0.5 0.9-0.5 0.3 0 0.7 0.2 0.8 0.6l2.4 4.3 4.3 2.3c0.3 0.2 0.5 0.5 0.5 0.9 0 0.4-0.2 0.7-0.5 0.9l-4.3 2.3-2.4 4.3c-0.2 0.4-0.5 0.6-0.9 0.6zm-4.9-8.1l2.9 1.6q0.3 0.1 0.4 0.4l1.6 3 1.7-3q0.1-0.2 0.4-0.4l2.9-1.6-2.9-1.6q-0.3-0.2-0.4-0.4l-1.6-3-1.7 3q-0.1 0.2-0.4 0.4z"/><path class="c" d="m540 54.2v6.8"/><path class="a" d="m540 62c-0.5 0-1-0.5-1-1v-6.8c0-0.5 0.5-1 1-1 0.6 0 1 0.5 1 1v6.8c0 0.5-0.4 1-1 1z"/><path class="c" d="m540 71.5v6.7"/><path class="a" d="m540 79.2c-0.5 0-1-0.4-1-1v-6.7c0-0.5 0.5-1 1-1 0.6 0 1 0.5 1 1v6.7c0 0.6-0.4 1-1 1z"/><path class="c" d="m552.1 66.2h-6.8"/><path class="a" d="m552.1 67.2h-6.8c-0.5 0-1-0.4-1-1 0-0.5 0.5-1 1-1h6.8c0.5 0 1 0.5 1 1 0 0.6-0.5 1-1 1z"/><path class="c" d="m534.8 66.2h-6.8"/><path class="a" d="m534.8 67.2h-6.8c-0.5 0-1-0.4-1-1 0-0.5 0.5-1 1-1h6.8c0.5 0 1 0.5 1 1 0 0.6-0.5 1-1 1z"/><path class="c" d="m531.6 74.7l4.7-4.7"/><path class="a" d="m531.6 75.7q-0.4 0-0.8-0.3c-0.3-0.4-0.3-1 0-1.4l4.8-4.7c0.4-0.4 1-0.4 1.4 0 0.4 0.3 0.4 1 0 1.4l-4.7 4.7q-0.3 0.3-0.7 0.3z"/><path class="c" d="m543.8 62.5l4.7-4.8"/><path class="a" d="m543.8 63.5q-0.4 0-0.7-0.3c-0.4-0.4-0.4-1 0-1.4l4.7-4.8c0.4-0.4 1.1-0.4 1.4 0 0.4 0.4 0.4 1.1 0 1.4l-4.7 4.8q-0.3 0.3-0.7 0.3z"/><path class="c" d="m531.6 57.7l4.7 4.8"/><path class="a" d="m536.3 63.5q-0.4 0-0.7-0.3l-4.8-4.8c-0.3-0.3-0.3-1 0-1.4 0.4-0.4 1.1-0.4 1.5 0l4.7 4.8c0.4 0.4 0.4 1 0 1.4q-0.3 0.3-0.7 0.3z"/><path class="c" d="m543.8 70l4.7 4.7"/><path class="a" d="m548.5 75.7q-0.4 0-0.7-0.3l-4.7-4.7c-0.4-0.4-0.4-1.1 0-1.4 0.4-0.4 1-0.4 1.4 0l4.7 4.7c0.4 0.4 0.4 1 0 1.4q-0.3 0.3-0.7 0.3z"/><path class="c" d="m883.6 610.3v8.9"/><path class="a" d="m883.6 620.2c-0.6 0-1-0.5-1-1v-8.9c0-0.6 0.4-1 1-1 0.6 0 1 0.4 1 1v8.9c0 0.5-0.4 1-1 1z"/><path class="c" d="m883.6 633.1v8.9"/><path class="a" d="m883.6 643c-0.6 0-1-0.4-1-1v-8.9c0-0.5 0.4-1 1-1 0.6 0 1 0.5 1 1v8.9c0 0.6-0.4 1-1 1z"/><path class="c" d="m899.5 626.1h-8.9"/><path class="a" d="m899.5 627.1h-8.9c-0.6 0-1-0.4-1-1 0-0.5 0.4-1 1-1h8.9c0.5 0 1 0.5 1 1 0 0.6-0.5 1-1 1z"/><path class="c" d="m876.6 626.1h-8.9"/><path class="a" d="m876.6 627.1h-8.9c-0.5 0-1-0.4-1-1 0-0.5 0.5-1 1-1h8.9c0.6 0 1 0.5 1 1 0 0.6-0.4 1-1 1z"/><path class="c" d="m872.4 637.4l6.3-6.3"/><path class="a" d="m872.4 638.4q-0.4 0-0.7-0.3c-0.4-0.4-0.4-1 0-1.4l6.3-6.3c0.3-0.4 1-0.4 1.4 0 0.4 0.4 0.4 1 0 1.4l-6.3 6.3q-0.3 0.3-0.7 0.3z"/><path class="c" d="m888.5 621.2l6.3-6.3"/><path class="a" d="m888.5 622.2q-0.4 0-0.7-0.3c-0.4-0.4-0.4-1 0-1.4l6.3-6.3c0.4-0.4 1.1-0.4 1.4 0 0.4 0.4 0.4 1 0 1.4l-6.3 6.3q-0.3 0.3-0.7 0.3z"/><path class="c" d="m872.4 614.9l6.3 6.3"/><path class="a" d="m878.7 622.2q-0.4 0-0.7-0.3l-6.3-6.3c-0.4-0.4-0.4-1 0-1.4 0.3-0.4 1-0.4 1.4 0l6.3 6.3c0.4 0.4 0.4 1 0 1.4q-0.3 0.3-0.7 0.3z"/><path class="c" d="m888.5 631.1l6.3 6.3"/><path class="a" d="m894.8 638.4q-0.4 0-0.7-0.3l-6.3-6.3c-0.4-0.4-0.4-1 0-1.4 0.4-0.4 1.1-0.4 1.4 0l6.3 6.3c0.4 0.4 0.4 1 0 1.4q-0.3 0.3-0.7 0.3z"/><path class="c" d="m17.4 180.6v8.9"/><path class="a" d="m17.4 190.5c-0.6 0-1-0.4-1-1v-8.9c0-0.5 0.4-1 1-1 0.5 0 1 0.5 1 1v8.9c0 0.6-0.5 1-1 1z"/><path class="c" d="m17.4 203.5v8.9"/><path class="a" d="m17.4 213.4c-0.6 0-1-0.4-1-1v-8.9c0-0.6 0.4-1 1-1 0.5 0 1 0.4 1 1v8.9c0 0.6-0.5 1-1 1z"/><path class="c" d="m1.5 196.5h8.9"/><path class="a" d="m10.4 197.5h-8.9c-0.6 0-1-0.4-1-1 0-0.5 0.4-1 1-1h8.9c0.5 0 1 0.5 1 1 0 0.6-0.5 1-1 1z"/><path class="c" d="m24.4 196.5h8.9"/><path class="a" d="m33.3 197.5h-8.9c-0.6 0-1-0.4-1-1 0-0.5 0.4-1 1-1h8.9c0.5 0 1 0.5 1 1 0 0.6-0.5 1-1 1z"/><path class="c" d="m28.6 207.7l-6.3-6.2"/><path class="a" d="m28.6 208.7q-0.4 0-0.7-0.2l-6.3-6.3c-0.4-0.4-0.4-1.1 0-1.5 0.4-0.3 1-0.3 1.4 0l6.3 6.3c0.4 0.4 0.4 1.1 0 1.5q-0.3 0.2-0.7 0.2z"/><path class="c" d="m12.4 191.6l-6.3-6.3"/><path class="a" d="m12.4 192.6q-0.4 0-0.7-0.3l-6.3-6.3c-0.4-0.4-0.4-1 0-1.4 0.4-0.4 1.1-0.4 1.4 0l6.3 6.3c0.4 0.4 0.4 1 0 1.4q-0.3 0.3-0.7 0.3z"/><path class="c" d="m28.6 185.3l-6.3 6.3"/><path class="a" d="m22.3 192.6q-0.4 0-0.7-0.3c-0.4-0.4-0.4-1 0-1.4l6.3-6.3c0.4-0.4 1-0.4 1.4 0 0.4 0.4 0.4 1 0 1.4l-6.3 6.3q-0.3 0.3-0.7 0.3z"/><path class="c" d="m12.4 201.5l-6.3 6.2"/><path class="a" d="m6.1 208.7q-0.4 0-0.7-0.2c-0.4-0.4-0.4-1.1 0-1.5l6.3-6.3c0.4-0.3 1.1-0.3 1.4 0 0.4 0.4 0.4 1.1 0 1.5l-6.3 6.3q-0.3 0.2-0.7 0.2z"/><path class="v" d="m725.1 750.2h-476.2c-1.8 0-3.3-1.4-3.3-3.2v-637.2c0-1.8 1.5-3.2 3.3-3.2h476.2c1.8 0 3.3 1.4 3.3 3.2v637.2c0 1.8-1.5 3.2-3.3 3.2z"/><path fill-rule="evenodd" class="a" d="m725.1 751.2h-476.2c-2.4 0-4.3-1.9-4.3-4.2v-637.2c0-2.3 1.9-4.2 4.3-4.2h476.2c2.4 0 4.3 1.9 4.3 4.2v637.2c0 2.3-1.9 4.2-4.3 4.2zm-476.2-643.6c-1.3 0-2.3 1-2.3 2.2v637.2c0 1.2 1 2.2 2.3 2.2h476.2c1.2 0 2.3-1 2.3-2.2v-637.2c0-1.2-1.1-2.2-2.3-2.2z"/><path class="w" d="m717 655.7h-442v-442h442z"/><path fill-rule="evenodd" class="a" d="m708 656.7h-442c-0.5 0-1-0.4-1-1v-442c0-0.5 0.5-1 1-1h442c0.5 0 1 0.5 1 1v442c0 0.6-0.5 1-1 1zm-441-2h440v-440h-440z"/><path class="x" d="m288.6 705.2c1.4 1.3 15.9 14.4 16.3 14 5.8-4.9 11.3-10.1 16.9-15.2 5-4.7 10-10.7 8.2-18.3-1.2-4.9-5.3-8.9-10.3-9.8-6.4-1.1-12 2.3-14.5 7.5-0.3 0.4-0.9 0.5-1.1 0-2.7-5.3-8.8-8.6-15.4-7-3.6 1-6.8 3.5-8.5 6.8-1.1 2.1-1.6 4.3-1.5 6.4 0.3 6.6 5.3 11.5 9.9 15.6z"/><path fill-rule="evenodd" class="a" d="m305 720.2c-1 0-3.6-2.1-16.3-13.6l-0.8-0.6q0 0 0 0c-4.8-4.3-9.9-9.5-10.2-16.3-0.1-2.4 0.5-4.8 1.6-7 1.9-3.6 5.3-6.3 9.1-7.2 6.4-1.6 13 1.2 16.2 6.8 3-5.5 9-8.5 15.3-7.4 5.3 1 9.8 5.2 11.1 10.6 1.9 8.2-3.6 14.6-8.6 19.2l-1 1c-5.1 4.8-10.4 9.7-15.8 14.3-0.2 0.1-0.4 0.2-0.6 0.2zm-15.7-15.7l0.7 0.6c10.2 9.2 13.7 12.1 14.8 12.9 5.2-4.4 10.3-9.2 15.2-13.7l1.1-1c4.6-4.3 9.6-10.1 7.9-17.3-1.1-4.7-4.9-8.3-9.5-9.1-5.6-1-11 1.8-13.4 6.9-0.3 0.6-0.9 0.9-1.5 0.9-0.6 0-1.1-0.3-1.4-0.9-2.7-5.2-8.6-7.8-14.3-6.4-3.3 0.8-6.2 3.2-7.8 6.2q-1.5 2.9-1.4 6c0.2 6.1 4.9 10.7 9.6 14.9z"/><path fill-rule="evenodd" class="e" d="m413.7 699.8c-0.5 0-1.1-0.3-1.4-0.7l-11.8-18.3c-0.3-0.5-0.4-1.1-0.1-1.6 0.3-0.5 0.8-0.9 1.4-0.9h43.3c0.7 0 1.4 0.5 1.5 1.2 0.2 0.7-0.1 1.4-0.7 1.8l-31.4 18.3q-0.4 0.2-0.8 0.2zm-11.1-19.5l11.2 17.4 29.8-17.4z"/><path fill-rule="evenodd" class="e" d="m424 719.5q0 0 0 0c-0.6 0-1.1-0.3-1.4-0.8l-10.5-19.8c-0.4-0.8-0.2-1.7 0.6-2.1l32.2-17.8c0.6-0.4 1.4-0.2 1.9 0.3 0.5 0.5 0.6 1.3 0.2 1.9l-21.6 37.5c-0.3 0.5-0.8 0.8-1.4 0.8zm-10-21.2l10 18.8 20.6-35.7z"/><path fill-rule="evenodd" class="e" d="m381.6 716.1h-16.4c-10.9 0-19.7-8.8-19.7-19.6 0-10.9 8.8-19.7 19.7-19.7 10.8 0 19.6 8.8 19.6 19.7v16.4c0 1.8-1.4 3.2-3.2 3.2zm-16.4-37.3c-9.8 0-17.7 7.9-17.7 17.7 0 9.7 7.9 17.6 17.7 17.6h16.4c0.7 0 1.2-0.5 1.2-1.2v-16.4c0-9.8-7.9-17.7-17.6-17.7z"/><path fill-rule="evenodd" class="e" d="m668 710q-0.4 0-0.7-0.2c-0.8-0.3-1.3-1-1.3-1.8v-34.3c0-1.1 0.9-2 2-2h27.7c1.1 0 2 0.9 2 2v34.2c0 0.8-0.5 1.5-1.2 1.8-0.8 0.3-1.6 0.2-2.2-0.4l-12.4-12.4-12.5 12.5c-0.4 0.4-0.9 0.6-1.4 0.6zm0-36.3v34.3l12.5-12.5c0.4-0.4 0.9-0.6 1.4-0.6 0.6 0 1 0.2 1.4 0.6l12.4 12.4v-34.2z"/><path class="y" d="m327.9 162.1c0 16-13.1 29.1-29.1 29.1-16.1 0-29.2-13.1-29.2-29.1 0-16.1 13.1-29.2 29.2-29.2 16 0 29.1 13.1 29.1 29.2z"/><path fill-rule="evenodd" class="a" d="m298.8 192.2c-16.7 0-30.2-13.5-30.2-30.1 0-16.7 13.5-30.2 30.2-30.2 16.6 0 30.1 13.5 30.1 30.2 0 16.6-13.5 30.1-30.1 30.1zm0-58.3c-15.6 0-28.2 12.6-28.2 28.2 0 15.5 12.6 28.1 28.2 28.1 15.5 0 28.1-12.6 28.1-28.1 0-15.6-12.6-28.2-28.1-28.2z"/><path class="z" d="m291.8 153.1c0 3.9 3.1 7 7 7 3.8 0 6.9-3.1 6.9-7 0-3.8-3.1-6.9-6.9-6.9-3.9 0-7 3.1-7 6.9z"/><path fill-rule="evenodd" class="a" d="m298.8 161.1c-4.4 0-8-3.6-8-8 0-4.3 3.6-7.9 8-7.9 4.3 0 7.9 3.6 7.9 7.9 0 4.4-3.6 8-7.9 8zm0-13.9c-3.3 0-6 2.7-6 5.9 0 3.3 2.7 6 6 6 3.2 0 5.9-2.7 5.9-6 0-3.2-2.7-5.9-5.9-5.9z"/><path class="z" d="m291.4 177.9h14.7c2.7 0 4.8-2.2 4.8-4.9v-1.3c0-5.7-4.6-10.3-10.3-10.3h-3.7c-5.7 0-10.3 4.6-10.3 10.3v1.3c0 2.7 2.1 4.9 4.8 4.9z"/><path fill-rule="evenodd" class="a" d="m306.1 178.9h-14.7c-3.2 0-5.8-2.6-5.8-5.9v-1.3c0-6.2 5-11.3 11.3-11.3h3.7c6.3 0 11.3 5.1 11.3 11.3v1.3c0 3.2-2.6 5.9-5.8 5.9zm-9.2-16.5c-5.1 0-9.3 4.2-9.3 9.3v1.3c0 2.2 1.7 3.9 3.8 3.9h14.7c2.1 0 3.8-1.8 3.8-3.9v-1.3c0-5.1-4.1-9.3-9.3-9.3z"/><path class="e" d="m584 224c-4.6-2.1-9.8-3.6-13.1-7-1.8-1.8-2.8-3.8-3.5-5.9l-0.5-31.8c-0.5-36-30.5-64.8-67.5-65.7 2.5-4.4 4-9.5 3.8-15-0.4-15.7-13.5-28.1-29.2-27.7-15.7 0.5-28.1 13.5-27.6 29.2 0.2 9.8 5.3 18.2 12.9 23.1-22.5 12.6-37.5 36.1-37.1 62.8l0.5 28.8q-0.6 0.9-1.4 1.7c-3.4 3.4-8.6 5-13.1 7.1-20.6 9.4-31.3 32.4-24.1 51.9 0.7 1.8 1.7 3.8 3.6 4.9 1.1 0.8 216.4 0.7 217 0.4 1.9-1.2 2.8-3.1 3.5-5 7.2-19.5-3.6-42.5-24.2-51.8z"/><path class="c" d="m443.3 202.1h0.8l0.5 34.3q0.1 3 0.4 5.8l-1.1 0.1c-11.5 0.1-20.9-8.7-21.1-19.8-0.2-11.1 9-20.2 20.5-20.4z"/><path fill-rule="evenodd" class="a" d="m443.6 243.3c-11.9 0-21.6-9.3-21.8-20.8-0.2-11.6 9.4-21.2 21.5-21.4q0 0 0 0h0.8c0.6 0 1 0.4 1 0.9l0.5 34.4q0 2.8 0.4 5.7c0 0.3 0 0.6-0.2 0.8-0.2 0.2-0.5 0.3-0.8 0.3l-1.1 0.1q-0.2 0-0.3 0zm-0.5-40.2c-10.8 0.2-19.5 8.9-19.3 19.4 0.2 10.4 9 18.8 19.8 18.8q0.1 0 0.3 0-0.3-2.5-0.3-4.9z"/><path class="c" d="m547 202.6h0.8c10.3-0.2 18.8 8.1 19 18.4 0.1 10.3-8.1 18.8-18.5 19h-1q0.3-2.7 0.2-5.5z"/><path fill-rule="evenodd" class="a" d="m547.3 241c-0.3 0-0.5-0.1-0.7-0.3-0.2-0.2-0.3-0.5-0.3-0.8q0.3-2.7 0.2-5.3l-0.5-32q0-0.4 0.3-0.7c0.2-0.2 0.5-0.3 0.7-0.3h0.7q0.2 0 0.4 0c5.1 0 10 1.9 13.7 5.5 3.8 3.7 5.9 8.6 6 13.9 0 5.2-1.9 10.2-5.6 14-3.7 3.8-8.6 5.9-13.9 6h-1q0 0 0 0zm0.8-37.4l0.4 30.9q0.1 2.2-0.1 4.5c4.7-0.1 9.1-2 12.4-5.4 3.3-3.4 5-7.9 5-12.6-0.1-4.7-2-9.1-5.4-12.4-3.3-3.3-7.7-5-12.3-5z"/><path class="c" d="m547.8 233.5l-0.5-31.6-0.1-8.8q0-1.1-0.1-2.2c-28.7-4.9-50.3-24.1-54.6-47.8q-0.2 0-0.4 0c-2.9 22.8-21.6 42.2-47.8 49.6q0 1 0 1.9l0.1 8.9 0.5 31.6q0 2.7 0.4 5.4c1.2 10.1 5.5 19.2 11.8 26.6v86.5h77.9v-85.8c7-7.9 11.6-17.9 12.6-28.9q0.2-2.7 0.2-5.4z"/><path fill-rule="evenodd" class="a" d="m535 354.6h-77.9c-0.6 0-1-0.4-1-1v-86.1c-6.5-7.8-10.6-17-11.8-26.9q-0.4-2.8-0.4-5.5l-0.6-40.4q0-1.1 0-2c0-0.5 0.3-0.9 0.7-1 25.8-7.2 44.2-26.4 47.1-48.7 0.1-0.5 0.4-0.9 0.9-0.9h0.2c0.6 0 1.2 0.3 1.3 0.8 4.2 23.4 25.8 42.2 53.8 47 0.4 0.1 0.8 0.5 0.8 0.9q0.1 1.1 0.1 2.3l0.6 40.4q0 2.6-0.2 5.5c-1 10.8-5.4 20.9-12.6 29.1v85.5c0 0.6-0.4 1-1 1zm-76.9-2h75.9v-84.8q0-0.4 0.3-0.7c7.1-8 11.3-17.8 12.3-28.3q0.2-2.7 0.2-5.3l-0.6-40.4q0-0.7-0.1-1.4c-26.7-4.8-47.8-22.4-53.7-44.5-4.5 21.2-22.5 39.1-47.1 46.2q0 0.6 0 1.2l0.6 40.4q0 2.6 0.4 5.3c1.1 9.7 5.1 18.7 11.5 26.1q0.3 0.3 0.3 0.7z"/><path class="e" d="m486.1 284.6c10.5 6.6 32.8 19.6 48.4 21.3v-37.3c-9.8 10.4-23.6 16.9-39 16.9-3.2 0-6.4-0.3-9.4-0.9z"/><path fill-rule="evenodd" class="e" d="m535.5 307l-1.1-0.1c-15.5-1.7-37.3-14.2-48.8-21.4l-4.4-2.8 5.1 0.9c3.1 0.6 6.2 0.9 9.2 0.9 14.6 0 28.2-5.9 38.2-16.6l1.8-1.8zm-44.9-20.7c11.7 7 29.5 16.6 42.9 18.5v-33.7c-10.3 10-23.7 15.4-38 15.4q-2.4 0-4.9-0.2z"/><path class="e" d="m555.9 226.3q-0.3 0-0.6-0.2l-3.6-2.9c-0.4-0.4-0.7-0.8-0.7-1.3 0-0.6 0.3-1 0.7-1.3l4.1-3c0.4-0.4 1-0.3 1.4 0.2 0.3 0.4 0.2 1-0.2 1.4l-3.7 2.7 3.3 2.7c0.4 0.3 0.5 0.9 0.1 1.4-0.2 0.2-0.5 0.3-0.8 0.3z"/><path fill-rule="evenodd" class="e" d="m434 228.2c-0.3 0-0.6-0.1-0.8-0.4-0.4-0.4-0.3-1 0.1-1.4l3.2-2.7-3.7-2.6c-0.5-0.3-0.6-1-0.3-1.4 0.3-0.5 1-0.6 1.4-0.3l4.2 2.9c0.4 0.3 0.6 0.8 0.7 1.3 0 0.5-0.2 1-0.6 1.3l-3.6 3.1q-0.3 0.2-0.6 0.2zm2.9-4.3z"/><path class="e" d="m484.4 209.8c0.1 2.4-1.9 4.4-4.3 4.4-2.4 0-4.4-1.9-4.4-4.3-0.1-2.4 1.9-4.4 4.3-4.5 2.4 0 4.4 1.9 4.4 4.4z"/><path class="e" d="m530.8 209.3c0.1 2.4-1.9 4.4-4.3 4.5-2.4 0-4.4-1.9-4.4-4.3-0.1-2.5 1.9-4.4 4.3-4.5 2.4 0 4.4 1.9 4.4 4.3z"/><path class="e" d="m532.9 195.2c-1.3 0.4-2.7 0-4.2-0.3-1.4-0.3-2.9-0.5-4.1-0.7-1.3-0.2-2.8-0.4-4.3-0.5-1.4-0.2-2.9-0.3-4-0.9-1-0.6-1.3-2 0.3-3.5 1.4-1.4 4.9-2.6 9.1-2 4.2 0.6 7.1 2.8 8 4.6 1 1.8 0.3 3-0.8 3.3z"/><path class="e" d="m472.2 199.7c1.3 0.1 2.6-0.6 4-1.2 1.3-0.6 2.7-1.2 3.8-1.7 1.2-0.5 2.6-1 4-1.4 1.4-0.5 2.9-0.9 3.8-1.8 0.8-0.9 0.8-2.3-1.1-3.3-1.7-1.1-5.3-1.5-9.3 0.1-4 1.5-6.3 4.3-6.8 6.2-0.6 2 0.4 3.1 1.6 3.1z"/><path class="e" d="m500.7 228.5c-0.6 0-1-0.4-1-1-0.1-0.5 0.3-1 0.9-1l3.8-0.2c5.3-0.3 9.3-4.8 9-10.1 0-0.6-0.3-1.1-0.8-1.6-0.4-0.4-1-0.5-1.6-0.5-4.1 0.2-7.7-3-7.9-7.1l-0.5-9.4c-0.1-0.6 0.4-1 0.9-1.1 0.6 0 1 0.4 1.1 1l0.5 9.4c0.2 3 2.8 5.4 5.8 5.2 1.1-0.1 2.2 0.3 3.1 1.1 0.8 0.7 1.3 1.8 1.4 2.9 0.3 6.3-4.5 11.8-10.9 12.1l-3.8 0.3q0 0 0 0z"/><path class="c" d="m475.8 231.2c1.2-1.1 2.9-1.1 4.1-0.2 2.3 1.5 7.2 4.2 13.7 3.9 1.6-0.1 2.6 1.6 2.2 3.2-1.1 3.3-4.3 8.6-13 6-10.7-3.2-9.9-10.3-7-12.9z"/><path fill-rule="evenodd" class="e" d="m487.1 245.8c-1.3 0-2.9-0.2-4.6-0.7-7.2-2.2-9-5.9-9.4-8-0.6-2.4 0.2-5.1 2.1-6.7 1.4-1.3 3.6-1.4 5.3-0.3 2.2 1.6 6.9 4.1 13 3.8 1.1 0 2 0.4 2.6 1.2 0.7 1 1 2.2 0.6 3.2-0.6 2-2.9 7.5-9.6 7.5zm-9.1-14.5c-0.6 0-1.1 0.2-1.5 0.6-1 0.9-2 2.7-1.5 4.8 0.6 2.8 3.5 5.1 8 6.4 8.1 2.5 10.9-2.3 11.8-5.3 0.2-0.5 0.1-1-0.2-1.4-0.2-0.2-0.5-0.5-1-0.5-6.6 0.3-11.8-2.5-14.2-4.1-0.5-0.3-1-0.5-1.4-0.5z"/><path class="A" d=""/><path fill-rule="evenodd" class="B" d="m559.4 248.4c-4.5 0-8.1-3.5-8.2-8-0.1-4.5 3.5-8.2 8.1-8.3q0 0 0.1 0c4.4 0 8.1 3.6 8.2 8 0 4.6-3.6 8.3-8.1 8.3q-0.1 0-0.1 0zm0-14.3q-0.1 0-0.1 0c-3.4 0-6.1 2.9-6.1 6.3 0.1 3.3 2.8 6 6.2 6q0 0 0.1 0c3.4 0 6.1-2.8 6.1-6.2-0.1-3.4-2.9-6.1-6.2-6.1z"/><path fill-rule="evenodd" class="C" d="m431.8 248.8c-2.1 0-4.1-0.8-5.7-2.3-1.5-1.5-2.4-3.5-2.4-5.7-0.1-4.5 3.5-8.3 8-8.3q0.1 0 0.1 0c4.5 0 8.2 3.6 8.2 8 0.1 2.2-0.8 4.3-2.3 5.8-1.5 1.6-3.5 2.5-5.7 2.5q-0.1 0-0.2 0zm0-14.3q0 0-0.1 0c-3.4 0-6.1 2.8-6 6.2 0 1.7 0.7 3.2 1.8 4.4 1.2 1.1 2.8 1.8 4.4 1.7 1.7 0 3.2-0.7 4.4-1.8 1.1-1.2 1.7-2.8 1.7-4.4 0-3.4-2.8-6.1-6.2-6.1z"/><path class="e" d="m592.4 589.5l-12.3-20.8-8.9-14.9-87.1-0.4-88.5 0.4-8.8 14.9-12.4 20.8-12.9 21.8c-8.3 14-15.2 28.9-20.4 44.4h284.7c-5.3-15.5-12.1-30.4-20.4-44.4z"/><path class="D" d="m589.8 586h-210.8c-0.6 0-1-0.4-1-1 0-0.5 0.4-1 1-1h210.8c0.5 0 1 0.5 1 1 0 0.6-0.5 1-1 1z"/><path class="D" d="m476.8 620.9c-0.5 0-1-0.4-1-1v-34.9c0-0.5 0.5-1 1-1 0.6 0 1 0.5 1 1v34.9c0 0.6-0.4 1-1 1z"/><path class="D" d="m497.6 620.9c-0.5 0-1-0.4-1-1v-34.9c0-0.5 0.5-1 1-1 0.6 0 1 0.5 1 1v34.9c0 0.6-0.4 1-1 1z"/><path class="D" d="m371.8 621.4c-0.5 0-0.9-0.3-1-0.8-0.1-0.5 0.2-1 0.7-1.2 32.4-9 26.9-33.1 26.7-34.1-0.2-0.6 0.1-1.1 0.7-1.2 0.5-0.2 1.1 0.2 1.2 0.7 0.1 0.3 6.2 27-28.1 36.5q-0.1 0.1-0.2 0.1z"/><path class="D" d="m589 621.4q-0.1 0-0.2-0.1c-34.3-9.5-28.2-36.2-28.1-36.5 0.1-0.5 0.7-0.9 1.2-0.7 0.5 0.1 0.9 0.6 0.7 1.2-0.2 1-5.7 25.1 26.7 34.1 0.5 0.2 0.8 0.7 0.7 1.2-0.1 0.5-0.5 0.8-1 0.8z"/><path class="E" d="m385.2 466.2c-2.4-4.2-48.1-39-65.2-51.9-3.7-2.9-4.9-7.9-2.7-12l30.1-57.9c12.1-23.4 35.2-38.6 60.9-40.6q2.8-0.2 5.6-0.2h38.1l40.7 30.5 42.8-30.5h29.7q2.8 0 5.6 0.2c20.5 1.6 42.7 12.6 57.3 26.9 8.8 8.7 53.7 60 53.7 60l-90.6 64.6-11 109.2c0 0-190.6 2.3-193.3 0.5-0.1-0.1-1.7-98.8-1.7-98.8z"/><path fill-rule="evenodd" class="a" d="m430.8 566.7c-25.3 0-43.5-0.2-44.5-0.9-0.5-0.4-0.5-0.4-2.1-99.3-2.5-3.4-27.1-22.9-64.8-51.5-4.1-3.1-5.4-8.6-3-13.2l30.1-57.9c12.3-23.7 35.4-39.1 61.7-41.1 2-0.2 3.9-0.2 5.7-0.2h38.1q0.4 0 0.6 0.2l40.1 30.1 42.3-30.1q0.2-0.2 0.5-0.2h29.7c1.8 0 3.6 0 5.7 0.2 19.8 1.5 42.6 12.2 57.9 27.2 8.7 8.6 53.3 59.5 53.8 60.1 0.1 0.2 0.2 0.4 0.2 0.7 0 0.3-0.2 0.6-0.4 0.7l-90.3 64.3-10.9 108.8c-0.1 0.5-0.5 0.9-1 0.9-29.3 0.4-101.9 1.2-149.4 1.2zm-42.9-2.5c9.2 1.2 139.7-0.1 191.4-0.7l10.9-108.3c0-0.3 0.2-0.6 0.4-0.8l89.7-63.9c-5.8-6.6-44.8-51.2-52.9-59.1-15-14.7-37.3-25.1-56.7-26.6-2-0.2-3.8-0.2-5.5-0.2h-29.3l-42.7 30.3c-0.3 0.3-0.8 0.3-1.1 0l-40.4-30.3h-37.8c-1.8 0-3.6 0-5.6 0.2-25.6 2-48.1 16.9-60.1 40l-30 57.9c-2 3.7-1 8.2 2.4 10.8 23.4 17.7 63.1 48 65.4 52.2q0.2 0.2 0.2 0.5c0.5 31.8 1.5 91.1 1.7 98z"/><g style="opacity:.2"><path class="F" d="m385.2 466.2c-2.4-4.2-48.1-39-65.2-51.9-3.7-2.9-4.9-7.9-2.7-12l30.1-57.9c12.1-23.4 35.2-38.6 60.9-40.6q2.8-0.2 5.6-0.2h38.1l40.7 30.5 42.8-30.5h29.7q2.8 0 5.6 0.2c20.5 1.6 42.7 12.6 57.3 26.9 8.8 8.7 53.7 60 53.7 60l-90.6 64.6-11 109.2c0 0-190.6 2.3-193.3 0.5-0.1-0.1-1.7-98.8-1.7-98.8z"/><path fill-rule="evenodd" class="a" d="m430.8 566.7c-25.3 0-43.5-0.2-44.5-0.9-0.5-0.4-0.5-0.4-2.1-99.3-2.5-3.4-27.1-22.9-64.8-51.5-4.1-3.1-5.4-8.6-3-13.2l30.1-57.9c12.3-23.7 35.4-39.1 61.7-41.1 2-0.2 3.9-0.2 5.7-0.2h38.1q0.4 0 0.6 0.2l40.1 30.1 42.3-30.1q0.2-0.2 0.5-0.2h29.7c1.8 0 3.6 0 5.7 0.2 19.8 1.5 42.6 12.2 57.9 27.2 8.7 8.6 53.3 59.5 53.8 60.1 0.1 0.2 0.2 0.4 0.2 0.7 0 0.3-0.2 0.6-0.4 0.7l-90.3 64.3-10.9 108.8c-0.1 0.5-0.5 0.9-1 0.9-29.3 0.4-101.9 1.2-149.4 1.2zm-42.9-2.5c9.2 1.2 139.7-0.1 191.4-0.7l10.9-108.3c0-0.3 0.2-0.6 0.4-0.8l89.7-63.9c-5.8-6.6-44.8-51.2-52.9-59.1-15-14.7-37.3-25.1-56.7-26.6-2-0.2-3.8-0.2-5.5-0.2h-29.3l-42.7 30.3c-0.3 0.3-0.8 0.3-1.1 0l-40.4-30.3h-37.8c-1.8 0-3.6 0-5.6 0.2-25.6 2-48.1 16.9-60.1 40l-30 57.9c-2 3.7-1 8.2 2.4 10.8 23.4 17.7 63.1 48 65.4 52.2q0.2 0.2 0.2 0.5c0.5 31.8 1.5 91.1 1.7 98z"/></g><path class="e" d="m495.4 426.6c-0.3 0-0.6-0.1-0.8-0.3-70.4-86-46.1-122.2-45.1-123.7 0.3-0.4 1-0.5 1.4-0.2 0.5 0.3 0.6 1 0.3 1.4-0.3 0.4-24.4 36.6 45 121.2 0.3 0.4 0.2 1.1-0.2 1.4q-0.3 0.2-0.6 0.2z"/><path class="e" d="m496.6 426.6q-0.4 0-0.7-0.2c-0.4-0.3-0.5-1-0.1-1.4 68.1-85.2 42.3-121.1 42.1-121.5-0.4-0.4-0.3-1 0.2-1.4 0.4-0.3 1-0.2 1.4 0.2 1.1 1.5 26.9 37.5-42.2 124-0.2 0.2-0.5 0.3-0.7 0.3z"/><path class="G" d="m520.9 509.3l-47.8 0.2c-1.3 0-2.4-1.1-2.5-2.4l-0.4-77c0-1.4 1.1-2.5 2.5-2.5l47.7-0.2c1.4-0.1 2.5 1 2.5 2.4l0.4 77c0.1 1.4-1.1 2.5-2.4 2.5z"/><path fill-rule="evenodd" class="a" d="m473.1 510.5c-1.9 0-3.4-1.5-3.5-3.4l-0.4-77c0-1.9 1.6-3.5 3.5-3.5l47.7-0.2q0 0 0 0c1.9 0 3.5 1.5 3.5 3.4l0.4 77c0.1 1.9-1.5 3.5-3.4 3.5l-47.8 0.2q0 0 0 0zm47.3-82.1q0 0 0 0l-47.7 0.2c-0.8 0-1.5 0.7-1.5 1.5l0.4 77c0.1 0.8 0.7 1.4 1.5 1.4q0 0 0 0l47.8-0.2c0.8 0 1.4-0.7 1.4-1.5l-0.4-77c0-0.8-0.7-1.4-1.5-1.4zm0.5 80.9z"/><path class="H" d="m511.6 465.1l-29 0.1-0.1-24.6 29-0.1z"/><path fill-rule="evenodd" class="a" d="m482.6 466.2c-0.5 0-1-0.4-1-0.9l-0.1-24.7q0-0.4 0.3-0.7 0.3-0.3 0.7-0.3l29-0.1q0 0 0 0c0.5 0 1 0.4 1 1l0.1 24.6q0 0.4-0.3 0.7-0.3 0.3-0.7 0.3l-29 0.1q0 0 0 0zm0.9-24.6l0.1 22.6 27-0.1-0.1-22.6z"/><path class="I" d="m483.8 482.2l26.8-0.2"/><path class="e" d="m483.8 483.2c-0.5 0-1-0.5-1-1 0-0.6 0.5-1 1-1l26.8-0.2q0 0 0 0c0.6 0 1 0.5 1 1 0 0.6-0.4 1-1 1l-26.8 0.2q0 0 0 0z"/><path class="I" d="m483.9 491.6l26.8-0.2"/><path class="e" d="m483.9 492.6c-0.6 0-1-0.5-1-1 0-0.6 0.4-1 1-1l26.8-0.2q0 0 0 0c0.5 0 1 0.5 1 1 0 0.6-0.5 1-1 1l-26.8 0.2q0 0 0 0z"/><path class="a" d="m435.6 543.5l-114.6 1.2c-2.9 0.1-5.4-2.3-5.4-5.2l-1.7-157.2c0-3 2.4-5.4 5.3-5.4l114.6-1.2c2.9-0.1 5.4 2.3 5.4 5.3l1.7 157.1c0 3-2.4 5.4-5.3 5.4z"/><path fill-rule="evenodd" class="a" d="m321 545.7c-3.5 0-6.3-2.8-6.4-6.2l-1.7-157.2c0-1.7 0.7-3.3 1.9-4.5 1.1-1.2 2.7-1.9 4.4-1.9l114.6-1.2c1.6 0 3.3 0.6 4.5 1.8 1.2 1.2 1.9 2.7 1.9 4.4l1.7 157.2c0 1.7-0.7 3.3-1.8 4.5-1.2 1.2-2.8 1.9-4.5 1.9l-114.6 1.2q0 0 0 0zm112.8-169q0 0 0 0l-114.6 1.2c-2.4 0-4.3 2-4.3 4.4l1.7 157.1c0 2.4 2 4.3 4.4 4.3l114.6-1.2c1.1 0 2.2-0.5 3-1.3 0.8-0.8 1.3-1.9 1.3-3.1l-1.7-157.1c0-1.2-0.5-2.3-1.3-3.1-0.8-0.8-1.9-1.2-3.1-1.2z"/><path class="J" d="m414.3 370.9c0-5.3-4.4-9.5-9.7-9.5l-16.3 0.2c0.1-0.5 0.1-0.9 0.1-1.4 0-5.4-4.4-9.6-9.7-9.6-5.4 0.1-9.7 4.4-9.6 9.8 0 0.5 0.1 0.9 0.2 1.4l-16.8 0.2c-5.3 0-9.6 4.4-9.5 9.7l0.1 9.6 71.3-0.8z"/><path fill-rule="evenodd" class="a" d="m343.1 382.3q-0.4 0-0.7-0.3-0.3-0.3-0.3-0.7l-0.1-9.6c-0.1-5.9 4.6-10.7 10.5-10.7l15.6-0.2q0-0.2 0-0.4c0-2.9 1-5.5 3-7.6 2-2 4.7-3.2 7.5-3.2 5.9 0 10.8 4.7 10.8 10.6q0 0.2 0 0.4l15.2-0.2c2.8 0 5.5 1.1 7.5 3 2 2 3.2 4.7 3.2 7.5l0.1 9.6c0 0.6-0.4 1-1 1l-71.3 0.8q0 0 0 0zm35.7-30.7q-0.1 0-0.1 0c-2.4 0-4.5 1-6.1 2.6-1.7 1.7-2.5 3.9-2.5 6.2 0 0.4 0.1 0.8 0.1 1.1 0.1 0.3 0 0.7-0.2 0.9-0.2 0.2-0.4 0.4-0.7 0.4l-16.8 0.2c-4.7 0-8.5 3.9-8.5 8.7l0.1 8.6 69.3-0.8-0.1-8.6c0-2.3-0.9-4.4-2.6-6-1.6-1.6-3.7-2.5-6-2.5q0 0-0.1 0l-16.3 0.2c-0.2 0.1-0.6-0.1-0.8-0.3-0.2-0.3-0.2-0.6-0.2-0.8 0.1-0.5 0.1-0.9 0.1-1.3 0-4.8-3.9-8.6-8.6-8.6z"/><path class="K" d="m382.4 360.2c0 2.1-1.6 3.7-3.6 3.7-2 0-3.7-1.6-3.7-3.6 0-2 1.6-3.7 3.6-3.7 2 0 3.7 1.6 3.7 3.6z"/><path fill-rule="evenodd" class="a" d="m378.8 364.9c-1.3 0-2.4-0.4-3.3-1.3-0.9-0.9-1.4-2-1.4-3.3 0-2.5 2-4.7 4.6-4.7 2.6 0 4.7 2.1 4.7 4.6 0 2.6-2 4.7-4.6 4.7q0 0 0 0zm0-7.3q-0.1 0-0.1 0c-1.4 0-2.6 1.2-2.6 2.7 0 0.7 0.3 1.4 0.8 1.9 0.5 0.5 1.2 0.7 1.9 0.7 1.4 0 2.6-1.2 2.6-2.7 0-1.4-1.2-2.6-2.6-2.6z"/><path class="c" d="m367.1 452.1l-43.8 3.1 2-18.2c0.8-4.2-0.1-7.9-3.7-10.3-6.4-4.4-15.2-1.8-18.3 5.3l-25 62.7c-7.8 19.5-11.2 61.2 9.3 65.6l1.4 0.5c14.5 5.6 30.7 1.2 41.2-10.3 2.2-2.3 4.3-3.9 6.2-3.8 4.2 0 9.4-2 13.4-3 4.9-1.1 9.6-2.6 14.2-4.8 2.1-1 4.3-2.1 5.9-3.8 5-5.3 1.1-14.4-6.4-13.5l-11.3 1.4c7.9-1.6 15-3.4 20.1-4.7 3.5-1 6.4-3.9 6.7-7.6 0.6-5.2-3.7-9.3-8.6-8.9l-24.7 2c15.4-2.1 25.5-4.7 31.4-6.7 4.1-1.4 6.7-5.4 6.2-9.7l-0.1-1c-0.5-4.9-4.9-10.3-9.9-9.8l-3.1 0.1c6.6-1 11.3-6.9 10.6-13.6-0.7-6.8-6.9-11.7-13.7-11z"/><path fill-rule="evenodd" class="a" d="m301.9 564.2c-4.4 0-9-0.8-13.3-2.4l-1.3-0.5c-4.8-1.1-8.8-4.2-11.5-9.4-8-15-4.2-43.1 1.6-57.6l24.9-62.6c1.6-3.7 4.8-6.5 8.6-7.6 3.9-1.1 8-0.5 11.3 1.8 3.6 2.4 5.1 6.3 4.1 11.3l-1.9 16.9 42.6-3c3.6-0.4 7.1 0.7 9.9 2.9 2.7 2.3 4.5 5.5 4.9 9 0.5 5.3-2 10.1-6.1 12.7 1.7 0.4 3.5 1.5 5 3.1 1.9 2 3.2 4.8 3.5 7.5l0.1 1c0.5 4.8-2.3 9.2-6.8 10.7-2.8 0.9-6.5 2-11.2 3.1l4-0.3c2.7-0.2 5.3 0.8 7.2 2.7 1.9 1.9 2.8 4.6 2.5 7.3-0.4 4-3.4 7.4-7.5 8.5-1.7 0.4-3.7 0.9-5.9 1.5 2.3 0.5 4.4 2.1 5.5 4.4 1.8 3.6 1.2 7.7-1.5 10.6-1.7 1.8-4 3-6.2 4.1-4.4 2-9.2 3.6-14.4 4.8-1.1 0.3-2.4 0.7-3.7 1-3.2 1-6.9 2-10 2-1-0.1-2.6 0.5-5.3 3.5-7.8 8.4-18.4 13-29.1 13zm12.8-138.6q-1.6 0-3.2 0.4c-3.3 1-6 3.3-7.3 6.4l-25 62.6c-5.6 14.2-9.3 41.5-1.6 56 2.4 4.6 5.9 7.4 10.3 8.3l1.4 0.6c13.9 5.3 29.7 1.3 40.2-10.1 2.6-2.8 4.9-4.1 6.9-4.1 2.8 0 6.3-1 9.3-1.9 1.4-0.4 2.7-0.7 3.9-1 5-1.2 9.7-2.8 14-4.8 2.3-1.1 4.2-2.1 5.6-3.6 2.1-2.2 2.6-5.5 1.2-8.2-1.4-2.6-3.9-4-6.8-3.6l-11.2 1.4c-0.6 0.1-1.1-0.3-1.2-0.8 0-0.5 0.3-1 0.8-1.1 8.2-1.7 15.4-3.6 20-4.8 3.3-0.8 5.7-3.6 6-6.7 0.3-2.2-0.4-4.2-1.9-5.7-1.5-1.5-3.5-2.3-5.6-2.1l-24.7 2c-0.5 0-1-0.4-1.1-0.9 0-0.5 0.3-1 0.9-1.1 15.5-2.1 25.5-4.8 31.2-6.7 3.7-1.2 6-4.7 5.5-8.6l-0.1-1c-0.2-2.2-1.3-4.6-3-6.4-1.7-1.8-3.8-2.7-5.8-2.5l-3.2 0.1c-0.5-0.1-0.9-0.4-1-1 0-0.5 0.4-1 0.9-1 6.1-0.9 10.3-6.3 9.7-12.5-0.3-3-1.8-5.7-4.2-7.6-2.4-1.9-5.4-2.8-8.4-2.5q0 0 0 0l-43.8 3.1q-0.5 0-0.8-0.3c-0.2-0.2-0.3-0.5-0.3-0.8l2-18.2q1.2-6.4-3.2-9.4c-1.9-1.3-4.2-1.9-6.4-1.9zm52.4 26.5z"/><path class="L" d="m333.2 481.6l39.7-5.4"/><path class="e" d="m333.2 482.6c-0.5 0-0.9-0.4-1-0.9 0-0.6 0.4-1.1 0.9-1.1l39.6-5.4c0.6-0.1 1.1 0.3 1.2 0.9 0 0.5-0.4 1-0.9 1.1l-39.6 5.3q-0.1 0.1-0.2 0.1z"/><path class="L" d="m336.6 505.1l30.1-4.4"/><path class="e" d="m336.6 506.1c-0.5 0-0.9-0.4-1-0.9 0-0.5 0.3-1 0.9-1.1l30.1-4.4c0.5-0.1 1 0.3 1.1 0.8 0.1 0.6-0.3 1.1-0.8 1.2l-30.1 4.4q-0.1 0-0.2 0z"/><path class="L" d="m340.8 525.1l23.2-4.1"/><path class="e" d="m340.8 526.1c-0.4 0-0.8-0.3-0.9-0.8-0.1-0.6 0.2-1.1 0.8-1.2l23.2-4.1c0.5-0.1 1 0.2 1.1 0.8 0.1 0.5-0.2 1-0.8 1.1l-23.2 4.2q-0.1 0-0.2 0z"/><path class="L" d="m313.1 456.8l17.4-2.1"/><path class="e" d="m313.1 457.8c-0.5 0-0.9-0.4-1-0.9-0.1-0.5 0.3-1 0.9-1.1l17.4-2.1c0.5-0.1 1 0.3 1.1 0.8 0 0.6-0.3 1.1-0.9 1.1l-17.4 2.2q0 0-0.1 0z"/><path class="c" d="m702.7 284.2c-0.5-10.8-23.7-42.9-36.1-49.6l9.9-27c3.2-8.5-0.8-18.2-8.4-19-5.2-0.6-10.7 3.1-16.8 13.2 0 0-22.6 46.9-26.5 50.4-31.3 28.3-21.1 77.2-21.1 77.2l-15.4 124c-1.7 19-2 42.5 11.5 57.6 11.2 12.7 30.6 16 46.6 10.6 48.6-16.5 44.5-72.8 43-113.9-0.4-13.3-3.3-83.6-3.3-83.6l11.1-18.7c4-6.6 5.7-14 5.5-21.2z"/><path fill-rule="evenodd" class="a" d="m631.2 525.1c-12.5 0-24.5-4.8-32.2-13.4-13.7-15.4-13.4-39.3-11.6-58.4l15.3-123.8c-0.6-3.2-9-50.5 21.4-78 2.8-2.5 17.3-31.4 26.3-50.2 6-9.9 11.8-14.3 17.8-13.7 3.3 0.3 6.2 2.2 8.1 5.3 2.6 4.2 3 9.9 1.2 15l-9.7 26.3c12.7 7.6 35.4 39 35.9 50 0.3 7.6-1.7 15.1-5.6 21.7l-11 18.4c0.2 5 2.9 70.7 3.3 83.3l0.2 4.9c1.5 39.6 3.5 93.9-43.9 110-5 1.8-10.3 2.6-15.5 2.6zm35.9-335.6c-4.8 0-9.7 4.2-14.9 12.8-2.3 4.7-22.8 47.1-26.7 50.7-30.6 27.5-20.9 75.7-20.8 76.2q0 0.2 0 0.4l-15.4 124c-1.7 18.6-2 41.9 11.2 56.8 10.4 11.6 29.1 15.8 45.6 10.2 46-15.6 44.1-66.9 42.5-108.1l-0.2-4.8c-0.4-13.1-3.3-82.9-3.3-83.6q0-0.3 0.1-0.5l11.2-18.7c3.7-6.3 5.5-13.4 5.3-20.6-0.5-10.5-23.7-42.4-35.6-48.8-0.4-0.2-0.6-0.8-0.5-1.2l10-27c1.6-4.6 1.3-9.7-1-13.4-1.6-2.5-3.9-4-6.6-4.3q-0.4-0.1-0.9-0.1z"/><path class="F" d="m648.3 252.5l40.6 30.9c8.2 6.2 6 19-3.7 22.1l-22.1 7-20.9-25.8-4.1-27.6c-0.8-5.7 5.4-9.7 10.2-6.6z"/><path class="e" d="m620.1 207.6l-14.6 6.4c-7.1 3.2-15.6-0.4-18.9-8l-1.3-2.9c-3.4-7.6-0.3-16.3 6.8-19.4l14.6-6.4z"/><path fill-rule="evenodd" class="e" d="m600.1 216.2c-2 0-4-0.5-5.9-1.3-3.8-1.6-6.8-4.6-8.6-8.5l-1.2-2.9c-1.7-3.9-1.9-8.2-0.6-12.1 1.4-3.9 4.2-7 7.9-8.6l14.6-6.5q0.4-0.1 0.7 0 0.4 0.2 0.6 0.6l13.4 30.3c0.2 0.5 0 1.1-0.5 1.3l-14.6 6.4c-1.8 0.8-3.8 1.3-5.8 1.3zm6.1-37.6l-13.7 6c-3.2 1.4-5.6 4.1-6.8 7.5-1.2 3.4-1 7.2 0.5 10.6l1.3 2.9c1.5 3.4 4.2 6.1 7.5 7.5 3.3 1.4 6.9 1.4 10.1 0l13.7-6z"/><path class="e" d="m696.2 320.2c-6.9 3.1-15.4-1-18.9-9l-34.7-78.6c-3.6-8-0.9-17 6-20 6.9-3 15.3 1 18.9 9l34.7 78.6c3.5 8 0.8 17-6 20z"/><path fill-rule="evenodd" class="e" d="m691.3 322.2c-2.1 0-4.2-0.5-6.3-1.4-3.7-1.9-6.8-5.1-8.6-9.2l-34.7-78.6c-1.9-4.1-2.2-8.5-1-12.5 1.2-4.1 3.9-7.2 7.5-8.8 7.4-3.3 16.4 1 20.2 9.5l34.7 78.6c3.8 8.5 0.8 18.1-6.5 21.3-1.7 0.8-3.5 1.1-5.3 1.1zm-37.9-109.6c-1.5 0-3 0.3-4.4 0.9-3.1 1.4-5.3 4-6.4 7.5-1 3.6-0.7 7.6 0.9 11.2l34.7 78.6c1.6 3.6 4.3 6.6 7.7 8.2 3.3 1.5 6.8 1.7 9.8 0.3 6.4-2.8 8.9-11.2 5.6-18.7l-34.7-78.6c-2.6-5.8-8-9.4-13.2-9.4zm42.8 107.6z"/><path class="M" d="m669.1 218.6l-26.6 11.8c-5.6 2.4-12.1-0.1-14.6-5.7l-2.6-5.9c-2.5-5.6 0-12.1 5.6-14.6l26.7-11.8c5.5-2.4 12.1 0.1 14.5 5.7l2.7 5.9c2.4 5.6-0.1 12.1-5.7 14.6z"/><path fill-rule="evenodd" class="e" d="m638 232.3q-2.2 0-4.3-0.8c-3-1.2-5.4-3.4-6.7-6.4l-2.6-5.9c-2.7-6.1 0-13.2 6.1-15.9l26.7-11.8c6-2.7 13.2 0.1 15.8 6.2l2.7 5.9c1.3 3 1.3 6.2 0.2 9.2-1.2 3-3.4 5.4-6.4 6.7l-26.6 11.8c-1.6 0.7-3.2 1-4.9 1zm24-39.8c-1.3 0-2.7 0.3-4 0.8l-26.7 11.8c-5 2.3-7.3 8.2-5.1 13.3l2.6 5.9c1.1 2.5 3.1 4.3 5.6 5.3 2.5 1 5.2 0.9 7.7-0.2l26.6-11.7c5.1-2.3 7.4-8.2 5.1-13.3l-2.6-5.9c-1.6-3.8-5.3-6-9.2-6z"/><path class="N" d="m665.5 205.4l-30.7 13.5c-14.9 6.7-32.7-0.9-39.8-16.8l-2.6-6.1c-7.1-15.9-0.7-34.2 14.3-40.8l30.6-13.5z"/><path fill-rule="evenodd" class="a" d="m623.5 222.3c-12.1 0-23.9-7.5-29.4-19.8l-2.7-6c-3.5-8-3.9-16.7-1.1-24.7 2.8-8 8.5-14.2 16-17.5l30.6-13.5q0.4-0.2 0.8 0 0.4 0.1 0.5 0.5l28.2 63.7c0.2 0.5 0 1.1-0.5 1.3l-30.7 13.6c-3.7 1.6-7.7 2.4-11.7 2.4zm13.3-79.3l-29.7 13.1c-7 3.1-12.3 8.9-14.9 16.4-2.6 7.4-2.2 15.7 1.1 23.1l2.6 6.1c6.8 15.4 24.1 22.7 38.5 16.3l29.7-13.1z"/><path class="O" d="m637.3 141.7l28.2 63.7c23-10.2 49.1-12.1 74.5-5.6l40.4 9.8-69.8-157.6-19 38.3c-12.3 23.3-31.2 41.2-54.3 51.4z"/><path fill-rule="evenodd" class="e" d="m780.4 210.6q-0.2 0-0.3-0.1l-40.3-9.7c-25.4-6.5-51-4.6-73.9 5.5q-0.4 0.2-0.8 0-0.4-0.1-0.6-0.5l-28.1-63.7c-0.2-0.5 0-1.1 0.5-1.3 23-10.2 41.6-27.8 53.9-51l18.9-38.2c0.2-0.4 0.6-0.6 0.9-0.6 0.4 0 0.8 0.3 0.9 0.6l69.8 157.6c0.1 0.3 0.1 0.7-0.2 1-0.2 0.2-0.5 0.4-0.7 0.4zm-70.1-15.6c9.9 0 19.9 1.3 30 3.9l38.3 9.2-68-153.7-18.1 36.4c-12.3 23.3-30.9 41-53.9 51.4l27.4 61.9c14-6.1 29-9.1 44.3-9.1z"/><path class="a" d="m637.3 141.7l28.2 63.7c23-10.2 49.1-12.1 74.5-5.6l40.4 9.8-69.8-157.6-19 38.3c-12.3 23.3-31.2 41.2-54.3 51.4z"/><path fill-rule="evenodd" class="a" d="m780.4 210.6q-0.2 0-0.3-0.1l-40.3-9.7c-25.4-6.5-51-4.6-73.9 5.5q-0.4 0.2-0.8 0-0.4-0.1-0.6-0.5l-28.1-63.7c-0.2-0.5 0-1.1 0.5-1.3 23-10.2 41.6-27.8 53.9-51l18.9-38.2c0.2-0.4 0.6-0.6 0.9-0.6 0.4 0 0.8 0.3 0.9 0.6l69.8 157.6c0.1 0.3 0.1 0.7-0.2 1-0.2 0.2-0.5 0.4-0.7 0.4zm-70.1-15.6c9.9 0 19.9 1.3 30 3.9l38.3 9.2-68-153.7-18.1 36.4c-12.3 23.3-30.9 41-53.9 51.4l27.4 61.9c14-6.1 29-9.1 44.3-9.1z"/><path class="c" d="m780.6 115.4c20.1 44.7 23.6 86.5 7.9 93.4-15.8 6.9-44.9-23.7-64.9-68.3-20.1-44.7-23.6-86.5-7.8-93.4 15.7-6.9 44.8 23.7 64.8 68.3z"/><path fill-rule="evenodd" class="e" d="m783.6 210.8c-17 0-42.4-28.6-60.9-69.9-15.6-34.5-21.7-68.9-15.3-85.5 1.8-4.6 4.5-7.7 8-9.2 16.5-7.3 45.6 23 66.2 68.8 15.5 34.5 21.6 68.9 15.2 85.5-1.8 4.6-4.4 7.7-7.9 9.2q-2.5 1.1-5.3 1.1zm-62.9-163.7q-2.4 0-4.5 0.9c-3 1.3-5.4 4.1-6.9 8.1-6.2 16.2-0.1 49.9 15.2 83.9 18 40.1 43.1 68.8 59 68.8q2.4 0 4.6-0.9c2.9-1.3 5.3-4 6.8-8.1 6.3-16.2 0.1-49.9-15.2-83.9-17.9-40-43.1-68.8-59-68.8z"/><path class="P" d="m750.8 128.2c15.3 34.2 19 65.7 8.4 70.4-10.7 4.7-31.7-19.2-47-53.4-15.3-34.2-19-65.7-8.4-70.4 10.7-4.7 31.7 19.2 47 53.4z"/><path class="Q" d="m709.9 127.6l20.7-9c8.5-3.7 19.1 1.6 23.7 11.9 4.5 10.2 1.4 21.5-7.1 25.2l-20.7 9z"/><path fill-rule="evenodd" class="a" d="m726.5 165.7c-0.4 0-0.8-0.2-0.9-0.6l-16.6-37.1q-0.2-0.4 0-0.8 0.1-0.4 0.5-0.5l20.7-9.1c9-3.9 20.2 1.7 25 12.4 2.6 5.9 2.9 12.3 0.8 17.6-1.6 4.2-4.6 7.4-8.4 9l-20.7 9q-0.2 0.1-0.4 0.1zm-15.3-37.6l15.8 35.3 19.8-8.6c3.3-1.5 5.9-4.3 7.3-7.9 1.9-4.9 1.6-10.7-0.8-16-4.3-9.8-14.3-14.9-22.3-11.4z"/><path class="c" d="m749.7 135.1c-1.6-4-1.4-8.2 0.2-10.9 2.1 1.5 4 4 5.2 7.1 1.5 3.7 1.6 7.5 0.8 10.6-2.5-0.8-4.9-3.3-6.2-6.8z"/><path fill-rule="evenodd" class="a" d="m755.9 142.9q-0.2 0-0.4 0c-2.8-1-5.3-3.8-6.7-7.4-1.7-4.2-1.5-8.7 0.3-11.8 0.1-0.2 0.4-0.4 0.6-0.5 0.3 0 0.6 0 0.8 0.2 2.4 1.7 4.3 4.3 5.5 7.5 1.5 3.8 1.8 7.9 0.8 11.3 0 0.3-0.2 0.5-0.5 0.6q-0.2 0.1-0.4 0.1zm-5.3-8.2c1 2.7 2.7 4.7 4.6 5.8 0.5-2.8 0.1-5.9-1-8.9-0.9-2.3-2.3-4.4-3.9-5.8-1 2.5-0.9 5.9 0.3 8.9z"/><g clip-path="url(#cp1)"><path class="R" d="m770.4 118.7c15.7 35.1 19.6 67.4 8.6 72.3-10.9 4.8-32.5-19.8-48.2-54.9-15.7-35.2-19.5-67.5-8.6-72.3 10.9-4.8 32.5 19.7 48.2 54.9z"/></g><path class="M" d="m644 138.5l27.9 64.3-6.4 2.4-28.2-63.5z"/><path fill-rule="evenodd" class="e" d="m665.5 206.2c-0.4 0-0.8-0.2-1-0.6l-28.1-63.5c-0.2-0.5 0-1.1 0.5-1.3l6.7-3.2c0.2-0.1 0.5-0.1 0.7 0q0.4 0.1 0.6 0.5l27.9 64.3c0.2 0.2 0.2 0.5 0 0.8-0.1 0.2-0.3 0.4-0.5 0.5l-6.5 2.4q-0.2 0.1-0.3 0.1zm-26.9-64l27.4 61.7 4.6-1.7-27.1-62.3z"/><path class="c" d="m694.9 266.3c-1.1 0.6-2.1 1.3-3.1 2.1l-18.5 14.9c-4.6 3.7-5 10.9-0.3 14.5 3.3 2.5 8 2.5 14.9-0.9l17.5-11.9c5.2-3.6 7.7-10.2 5.5-16.1-1.8-4.7-6.1-8-16-2.6z"/><path fill-rule="evenodd" class="a" d="m678.6 300.6q-3.6 0-6.2-2c-2.3-1.8-3.7-4.5-3.7-7.6-0.1-3.3 1.4-6.5 4-8.5l18.5-14.9c1.1-0.9 2.2-1.6 3.2-2.2 5.1-2.7 9.3-3.5 12.4-2.4 2.3 0.9 4 2.7 5 5.6 2.3 6.1-0.1 13.3-5.8 17.2l-17.5 11.9c-3.8 1.9-7.1 2.9-9.9 2.9zm25.1-36.1q-3.4 0-8.3 2.7c-1 0.5-1.9 1.1-3 1.9l-18.5 14.9c-2 1.7-3.3 4.3-3.2 7 0 2.4 1.1 4.6 2.9 6 3.2 2.4 7.7 2 13.9-1l17.3-11.8c5-3.4 7.1-9.7 5.2-14.9q-1.3-3.4-3.9-4.4-1.1-0.4-2.4-0.4zm-8.8 1.8z"/><path class="c" d="m683.3 250.7c-1.1 0.5-2.1 1.3-3 2l-18.6 14.9c-4.6 3.7-4.9 11-0.2 14.6 3.2 2.4 7.9 2.5 14.9-0.9l17.4-11.9c5.2-3.6 7.7-10.2 5.5-16.1-1.7-4.8-6-8-16-2.6z"/><path fill-rule="evenodd" class="a" d="m667 284.9q-3.5 0-6.1-1.9c-2.4-1.8-3.7-4.6-3.8-7.6 0-3.3 1.5-6.5 4-8.5l18.5-14.9c1.2-1 2.2-1.7 3.2-2.2 5.1-2.8 9.3-3.6 12.4-2.4 2.3 0.9 4 2.7 5.1 5.5 2.3 6.1-0.2 13.4-5.9 17.3l-17.5 11.9c-3.8 1.9-7.1 2.8-9.9 2.8zm16.8-33.4c-0.9 0.5-1.9 1.2-2.9 2l-18.5 14.9c-2.1 1.7-3.3 4.3-3.3 7 0.1 2.4 1.1 4.6 3 6 3.1 2.4 7.7 2 13.8-1l17.4-11.9c4.9-3.4 7.1-9.6 5.1-14.9q-1.3-3.4-3.9-4.3c-2.5-1-6.1-0.2-10.7 2.2z"/><path class="c" d="m672 232c-1.1 0.7-2 1.4-3 2.3l-17.8 15.7c-4.4 3.9-4.4 11.2 0.4 14.5 3.4 2.3 8.1 2.2 14.9-1.5l16.9-12.8c5-3.8 7.2-10.5 4.7-16.3-2-4.6-6.4-7.7-16.1-1.9z"/><path fill-rule="evenodd" class="a" d="m656.7 267.1q-3.2 0-5.6-1.7c-2.4-1.7-3.9-4.4-4.1-7.4-0.2-3.3 1.1-6.6 3.6-8.7l17.8-15.8c1.1-1 2.1-1.7 3.1-2.3 4.9-3 9.1-4 12.2-3 2.4 0.8 4.1 2.6 5.3 5.3 2.6 6 0.5 13.4-5 17.5l-16.9 12.8c-4 2.2-7.4 3.3-10.4 3.3zm24.4-37.3q-3.5 0-8.6 3.1c-0.9 0.5-1.8 1.2-2.8 2.1l-17.8 15.8c-2 1.7-3.1 4.4-2.9 7 0.1 2.5 1.3 4.6 3.2 5.9 3.2 2.2 7.8 1.7 13.8-1.6l16.8-12.7c4.7-3.6 6.6-9.9 4.4-15.1q-1.4-3.3-4.1-4.2-0.9-0.3-2-0.3zm-9.1 2.2z"/><path class="c" d="m662.6 313.1c0 0 2.7-29.9-27.5-25.3-4.9 0.7 35.9-8.3 34.8-21.6-1.1-13.4-23.2-8.7-45.1-1.8"/><path class="a" d="m662.6 314.1q-0.1 0-0.1 0c-0.6 0-1-0.5-0.9-1 0-0.2 1-12.8-6.5-19.9-4.5-4.2-11.2-5.7-19.9-4.4-0.3 0-1.3 0.2-1.5-0.8-0.2-0.9 0.2-1 2.6-1.7 27.6-8.3 33-15.5 32.6-20.1-0.2-2.5-1.2-4.3-3.1-5.5-7.4-5-26.8 0.3-40.7 4.7-0.5 0.1-1.1-0.2-1.3-0.7-0.1-0.5 0.2-1.1 0.7-1.2 15.5-4.9 34.4-9.9 42.4-4.5 2.4 1.6 3.7 4 4 7.1 0.6 7.1-8.7 13.8-28.3 20.3 5.7 0.2 10.4 2 13.9 5.4 8.2 7.7 7.1 20.9 7.1 21.4-0.1 0.6-0.5 0.9-1 0.9z"/><path class="S" d="m807.2 32.7l-6.6 33.9-6-7.2-11.7 23.4 7.6-37.8 6.2 6.2z"/><path fill-rule="evenodd" class="a" d="m782.9 83.8q-0.2 0-0.3 0c-0.5-0.2-0.8-0.7-0.7-1.2l7.6-37.8c0.1-0.3 0.3-0.6 0.7-0.7 0.3-0.1 0.7 0 1 0.2l5.3 5.3 9.8-17.4c0.3-0.4 0.8-0.6 1.3-0.4 0.4 0.1 0.7 0.6 0.6 1.1l-6.6 33.9c-0.1 0.4-0.4 0.7-0.8 0.7-0.3 0.1-0.7 0-1-0.3l-5-6-11 22.1c-0.2 0.3-0.5 0.5-0.9 0.5zm8.2-36.7l-5.8 28.6 8.4-16.7c0.1-0.3 0.4-0.5 0.8-0.6 0.3 0 0.6 0.1 0.8 0.4l4.7 5.5 5-25.8-7.4 13.2c-0.2 0.3-0.5 0.5-0.8 0.5-0.3 0.1-0.6 0-0.8-0.2z"/><path class="T" d="m861.6 154.7l-32.4 2.9 4.9-7.3-24.2-4.3 36.1-3.2-3.9 7.3z"/><path fill-rule="evenodd" class="a" d="m829.2 158.6c-0.3 0-0.6-0.1-0.8-0.4-0.2-0.4-0.2-0.8 0-1.1l4-6.1-22.7-4.1c-0.5 0-0.9-0.5-0.8-1 0-0.5 0.4-0.9 0.9-0.9l36.2-3.2c0.3 0 0.7 0.1 0.9 0.4 0.2 0.4 0.2 0.8 0 1.1l-3.3 6.1 18.2 4.3c0.5 0.1 0.8 0.5 0.8 1 0 0.5-0.4 0.9-0.9 1l-32.4 2.9q0 0-0.1 0zm-11.8-12.3l16.9 3c0.3 0.1 0.6 0.3 0.7 0.6 0.2 0.3 0.1 0.7 0 1l-3.8 5.6 24.2-2.3-13.6-3.2c-0.3 0-0.5-0.2-0.6-0.5-0.2-0.3-0.2-0.6 0-0.9l3.1-5.6z"/><path class="U" d="m886.2 72.9l-45.1 33 0.7-15.1-39.6 15 50.5-36.7 0.6 14.3z"/><path fill-rule="evenodd" class="a" d="m841.1 106.9q-0.3 0-0.5-0.1c-0.3-0.2-0.5-0.6-0.5-1l0.7-13.6-38.2 14.5c-0.5 0.2-1 0-1.3-0.4-0.2-0.5-0.1-1 0.3-1.3l50.6-36.7c0.2-0.2 0.6-0.2 1-0.1 0.3 0.2 0.5 0.5 0.5 0.9l0.5 12.9 31.7-10.1c0.4-0.1 1 0.1 1.2 0.5 0.2 0.4 0.1 1-0.3 1.3l-45.1 33q-0.3 0.2-0.6 0.2zm0.7-17.1q0.3 0 0.6 0.2c0.3 0.2 0.4 0.5 0.4 0.8l-0.6 13 38.4-28.1-27 8.6c-0.3 0.1-0.6 0.1-0.9-0.1-0.2-0.2-0.4-0.5-0.4-0.8l-0.5-12.4-42.9 31.2 32.6-12.4q0.1 0 0.3 0z"/><path class="V" d="m61.6 291.5h268.7c13.4 0 24.3-10.9 24.3-24.3v-4.1c0-13.4-10.9-24.3-24.3-24.3h-268.7c-13.4 0-24.3 10.9-24.3 24.3v4.1c0 13.4 10.9 24.3 24.3 24.3z"/><path fill-rule="evenodd" class="a" d="m330.3 292.5h-268.7c-13.9 0-25.3-11.4-25.3-25.3v-4.1c0-13.9 11.4-25.3 25.3-25.3h268.7c13.9 0 25.3 11.4 25.3 25.3v4.1c0 13.9-11.4 25.3-25.3 25.3zm-268.7-52.7c-12.8 0-23.3 10.5-23.3 23.3v4.1c0 12.8 10.5 23.3 23.3 23.3h268.7c12.8 0 23.3-10.5 23.3-23.3v-4.1c0-12.8-10.5-23.3-23.3-23.3z"/><path class="c" d="m77.3 278.2h202.2c1.2 0 2.2-1 2.2-2.2v-21.7c0-1.2-1-2.2-2.2-2.2h-202.2c-1.2 0-2.2 1-2.2 2.2v21.7c0 1.2 1 2.2 2.2 2.2z"/><path fill-rule="evenodd" class="c" d="m318.3 271.8c-2.9 0-5.6-1.2-7.5-3.4-1.5-1.8-2.4-4.1-2.4-6.5 0-5.4 4.5-9.9 9.9-9.9 5.5 0 10 4.5 10 9.9 0 5.5-4.5 9.9-10 9.9zm0-17.7c-4.3 0-7.8 3.5-7.8 7.8 0 1.9 0.7 3.7 1.9 5.1 1.5 1.7 3.7 2.7 5.9 2.7 4.3 0 7.8-3.5 7.8-7.8 0-4.3-3.5-7.8-7.8-7.8z"/><path class="c" d="m301.8 278.3c-0.3 0-0.5-0.1-0.8-0.3-0.4-0.5-0.4-1.1 0-1.5l9.7-9.7c0.4-0.4 1.1-0.4 1.5 0 0.4 0.4 0.4 1.1 0 1.5l-9.6 9.7c-0.3 0.2-0.5 0.3-0.8 0.3z"/><path class="e" d="m246.5 371v-56.3c-31.1 0-56.3 25.2-56.3 56.3 0 31.1 25.2 56.3 56.3 56.3 31.1 0 56.3-25.2 56.3-56.3z"/><path fill-rule="evenodd" class="e" d="m246.5 428.3c-31.6 0-57.3-25.7-57.3-57.3 0-31.6 25.7-57.3 57.3-57.3 0.6 0 1 0.4 1 1v55.3h55.3c0.6 0 1 0.5 1 1 0 31.6-25.7 57.3-57.3 57.3zm-1-112.6c-30 0.5-54.3 25.1-54.3 55.3 0 30.5 24.8 55.3 55.3 55.3 30.2 0 54.8-24.3 55.3-54.3h-55.3c-0.5 0-1-0.4-1-1z"/><path class="W" d="m240.2 371v-56.3c-31.1 0-56.3 25.2-56.3 56.3 0 31.1 25.2 56.3 56.3 56.3 31.1 0 56.3-25.2 56.3-56.3z"/><path fill-rule="evenodd" class="a" d="m240.2 428.3c-31.6 0-57.3-25.7-57.3-57.3 0-31.6 25.7-57.3 57.3-57.3 0.5 0 1 0.4 1 1v55.3h55.3c0.5 0 1 0.5 1 1 0 31.6-25.7 57.3-57.3 57.3zm-1-112.6c-30.1 0.5-54.3 25.1-54.3 55.3 0 30.5 24.8 55.3 55.3 55.3 30.1 0 54.8-24.3 55.3-54.3h-55.3c-0.6 0-1-0.4-1-1z"/><path class="X" d="m287.1 351c0-15.5-12.7-28.1-28.2-28.1v28.1z"/><path fill-rule="evenodd" class="a" d="m287.1 352h-28.2c-0.6 0-1-0.4-1-1v-28.1c0-0.6 0.4-1 1-1 16.1 0 29.2 13.1 29.2 29.1 0 0.6-0.5 1-1 1zm-27.2-2h26.1c-0.5-14.2-11.9-25.6-26.1-26.1z"/><path class="Y" d="m270.6 354.8c0-8.9-7.2-16.1-16.1-16.1v16.1z"/><path fill-rule="evenodd" class="a" d="m270.6 355.8h-16.1c-0.6 0-1-0.4-1-1v-16.1c0-0.6 0.4-1 1-1 9.4 0 17.1 7.7 17.1 17.1 0 0.6-0.4 1-1 1zm-15.1-2h14.1c-0.5-7.5-6.6-13.6-14.1-14.1z"/><path class="Z" d="m677.9 14.5c0-7.4-6.1-13.5-13.5-13.5l-66.2 0.2c-7.4 0-13.5 6.1-13.4 13.5l0.1 43.8c0 7.5 6 13.5 13.5 13.5h14.2l18.2 18.1 18.1-18.2 15.6-0.1c7.5 0 13.5-6 13.5-13.5z"/><path fill-rule="evenodd" class="a" d="m630.8 91.1q-0.4 0-0.7-0.3l-17.9-17.8h-13.8q0 0 0 0c-3.9 0-7.5-1.5-10.3-4.2-2.7-2.8-4.2-6.4-4.2-10.3l-0.1-43.8c-0.1-3.8 1.4-7.5 4.2-10.2 2.7-2.8 6.4-4.3 10.2-4.3l66.2-0.2q0 0 0 0c8 0 14.5 6.5 14.5 14.5q0 0 0 0l0.1 43.8c0 8-6.5 14.5-14.5 14.5l-15.2 0.1-17.8 17.9c-0.2 0.2-0.4 0.3-0.7 0.3zm-18.2-20.1q0.4 0 0.7 0.3l17.5 17.4 17.4-17.5q0.3-0.3 0.7-0.3l15.6-0.1c6.9 0 12.5-5.6 12.5-12.5l-0.1-43.8c0-6.9-5.6-12.5-12.5-12.5q0 0 0 0l-66.2 0.2c-3.3 0-6.4 1.3-8.8 3.7-2.4 2.4-3.7 5.5-3.6 8.8l0.1 43.8c0 3.4 1.3 6.5 3.6 8.9 2.4 2.3 5.5 3.6 8.9 3.6q0 0 0 0h14.2z"/><path class="a0" d="m631.6 19l4.6 9.4c0.2 0.4 0.6 0.7 1.1 0.8l10.4 1.5c1.1 0.1 1.6 1.5 0.8 2.3l-7.6 7.4c-0.3 0.3-0.5 0.7-0.4 1.2l1.8 10.4c0.2 1.1-1 2-2 1.4l-9.3-4.9c-0.4-0.2-0.9-0.2-1.3 0l-9.3 4.9c-1 0.6-2.2-0.3-2-1.4l1.8-10.4c0-0.5-0.1-0.9-0.4-1.2l-7.6-7.4c-0.8-0.8-0.3-2.2 0.8-2.3l10.4-1.5c0.5-0.1 0.8-0.4 1-0.8l4.7-9.4c0.5-1.1 2-1.1 2.5 0z"/><path fill-rule="evenodd" class="a" d="m619.7 54.6c-0.4 0-0.9-0.2-1.4-0.5-0.7-0.5-1.1-1.4-0.9-2.3l1.8-10.4q0-0.2-0.1-0.3l-7.6-7.4c-0.6-0.6-0.9-1.5-0.6-2.4 0.3-0.9 1.1-1.5 2-1.6l10.4-1.5q0.2-0.1 0.3-0.2l4.6-9.5c0.4-0.8 1.2-1.3 2.1-1.3 1 0 1.8 0.5 2.2 1.3l4.6 9.5q0.1 0.1 0.3 0.2l10.4 1.5c0.9 0.1 1.7 0.7 2 1.6 0.2 0.9 0 1.8-0.6 2.4l-7.6 7.4q-0.1 0.1-0.1 0.3l1.8 10.4c0.1 0.9-0.2 1.8-1 2.3-0.7 0.6-1.7 0.6-2.5 0.2l-9.3-4.9q-0.2-0.1-0.3 0l-9.3 4.9q-0.6 0.3-1.2 0.3zm10.6-35.4c0 0-0.2 0-0.3 0.2l-4.7 9.4c-0.3 0.7-1 1.2-1.8 1.3l-10.4 1.6c-0.2 0-0.2 0.1-0.3 0.2 0 0.1 0 0.3 0.1 0.4l7.6 7.4c0.5 0.5 0.8 1.3 0.6 2.1l-1.7 10.3c-0.1 0.2 0 0.4 0.1 0.4 0.1 0.1 0.2 0.1 0.4 0l9.3-4.9c0.7-0.3 1.6-0.3 2.3 0l9.3 4.9c0.1 0.1 0.3 0.1 0.4 0 0 0 0.2-0.2 0.1-0.4l-1.8-10.3c-0.1-0.8 0.2-1.6 0.7-2.1l7.6-7.4c0.1-0.1 0.1-0.3 0.1-0.4-0.1-0.1-0.2-0.2-0.4-0.2l-10.4-1.6c-0.7-0.1-1.4-0.6-1.8-1.3l-4.6-9.4c-0.1-0.2-0.3-0.2-0.4-0.2z"/></svg>